<svg width="25" height="29" viewBox="0 0 25 29" fill="none" xmlns="http://www.w3.org/2000/svg">
<path d="M2.26022 13.7198C1.43696 13.4722 1.18267 12.8015 1.06481 12.049C0.905936 11.0346 1.05299 10.0447 1.35533 9.07475C1.77391 7.7319 2.35461 6.47319 3.22435 5.37622C4.39117 3.90456 5.84933 2.83582 7.54864 2.11108C8.69252 1.62323 9.88798 1.34646 11.1143 1.2206C12.0015 1.12955 12.8919 1.1375 13.7837 1.2015C14.8848 1.28051 15.971 1.43858 17.0385 1.72836C18.7121 2.18266 20.1762 3.01115 21.3752 4.31472C22.2785 5.29682 22.8664 6.46696 23.2779 7.73766C23.587 8.69236 23.8505 9.66153 23.9545 10.6668C24.0157 11.2586 24.0376 11.8533 23.8739 12.4346C23.6179 13.3439 22.963 13.809 22.1342 14.0701C21.6623 14.2188 21.1701 14.2605 20.6841 14.3183C19.9005 14.4114 19.1875 14.698 18.5138 15.0986C18.016 15.3947 17.5005 15.5946 16.9163 15.5542C16.8888 15.5522 16.8603 15.558 16.8329 15.5635C16.8199 15.566 16.8084 15.5764 16.7662 15.5999C16.8413 15.851 16.9251 16.1076 16.9948 16.3682C17.504 18.2725 17.9431 20.1944 18.2716 22.1405C18.4039 22.9244 18.448 23.7204 18.364 24.5197C18.2386 25.7133 17.6126 26.538 16.6123 27.0884C15.5346 27.6814 14.3776 28.0127 13.1707 28.1749C11.5362 28.3945 9.93855 28.1881 8.36412 27.7308C7.85437 27.5828 7.37322 27.364 6.96141 27.0071C6.36811 26.4931 6.16651 25.7846 6.03429 25.0382C5.82292 23.845 5.83395 22.6479 5.9437 21.4455C6.03968 20.3939 6.15885 19.3455 6.33701 18.3057C6.49815 17.3654 6.86259 16.4902 7.19811 15.607C7.22101 15.5467 7.24636 15.4874 7.27906 15.4067C7.14194 15.3842 7.01552 15.3528 6.88764 15.3442C6.43913 15.3138 6.06707 15.1142 5.80685 14.7497C5.34893 14.1082 4.72102 13.9053 3.98867 13.8927C3.41499 13.8828 2.83665 13.8935 2.26022 13.7198ZM17.3096 9.73868C17.5974 9.73947 17.8857 9.73065 18.1729 9.74456C18.3524 9.75325 18.3991 9.68972 18.3946 9.50741C18.3711 8.55401 18.1524 7.65966 17.6789 6.83587C17.6442 6.77554 17.58 6.70984 17.6467 6.62941C17.74 6.64539 17.7651 6.72057 17.7982 6.77999C18.0722 7.27207 18.2947 7.78498 18.4178 8.34256C18.5088 8.75454 18.5259 9.17324 18.5631 9.59066C18.5699 9.66651 18.5674 9.74661 18.6598 9.78996C18.8392 9.87418 19.0923 9.85013 19.2578 9.70031C19.2553 9.96677 19.4591 9.9826 19.6212 10.0504C20.0806 10.2423 20.4753 10.5186 20.7488 10.9579C20.7751 11.0002 20.7891 11.068 20.867 11.073C20.8986 10.4963 20.7679 9.93713 20.6887 9.34466C20.8363 9.40006 20.8325 9.49777 20.8531 9.57514C21.0028 10.1378 21.023 10.7178 21.0602 11.295C21.0726 11.4873 21.169 11.6038 21.3249 11.6945C21.3896 11.4964 21.2845 11.2924 21.3919 11.1104C21.4801 11.1432 21.4815 11.2097 21.4869 11.2737C21.5008 11.4395 21.5181 11.6051 21.5269 11.7713C21.5314 11.8561 21.5443 11.9278 21.6259 11.9703C21.9137 12.12 22.2182 12.214 22.5499 12.2901C22.524 10.9365 22.2778 9.64075 21.9735 8.34047C22.1195 8.35093 22.1095 8.4377 22.129 8.50209C22.2741 8.97972 22.3693 9.46952 22.4583 9.96048C22.5912 10.6936 22.6925 11.431 22.713 12.1781C22.7167 12.3125 22.7678 12.4095 22.8902 12.4728C22.9888 12.5238 23.0774 12.5955 23.1749 12.6611C23.2571 12.5858 23.2867 12.4815 23.3223 12.3812C23.5167 11.8326 23.4827 11.2642 23.4237 10.7035C23.3218 9.73504 23.0604 8.80136 22.7689 7.87801C22.0173 5.49766 20.5364 3.77844 18.3215 2.76546C16.7954 2.06751 15.1659 1.79998 13.5097 1.72309C12.4369 1.67328 11.3651 1.70831 10.298 1.88256C8.18954 2.22688 6.32442 3.11146 4.72091 4.5562C3.2584 5.8739 2.29247 7.52872 1.78159 9.45905C1.55518 10.3145 1.40414 11.1848 1.59722 12.0752C1.62163 12.1878 1.6164 12.3173 1.71922 12.42C1.86828 12.1848 2.03762 11.9977 2.27818 11.8871C2.50973 11.7806 2.76666 11.7821 3.00107 11.7081C2.97975 10.1054 3.70741 7.74658 4.28056 7.54646C4.3192 7.61149 4.27272 7.65661 4.2429 7.70209C3.66928 8.57692 3.31835 9.53886 3.21435 10.589C3.18329 10.9026 3.12194 11.2209 3.1888 11.5393C3.20853 11.6333 3.23321 11.7379 3.35094 11.7333C3.53706 11.7259 3.72257 11.7019 3.91671 11.6842C3.89852 11.3429 3.76916 11.0257 3.90555 10.6876C4.01734 10.7788 3.99409 10.864 3.99296 10.939C3.99077 11.085 4.00688 11.2275 4.03862 11.3694C4.09546 11.6234 4.13489 11.6513 4.36789 11.563C4.91279 11.3564 5.38099 11.0016 5.88626 10.7183C5.94373 10.686 5.95387 10.6327 5.94916 10.5699C5.89964 9.90898 5.9759 9.25612 6.07869 8.60646C6.15722 8.11013 6.29508 7.63227 6.56645 7.2062C6.60469 7.14617 6.63113 7.0546 6.7289 7.09264C6.77079 7.16808 6.72642 7.21433 6.6985 7.26151C6.30941 7.91893 6.20661 8.65546 6.14811 9.40249C6.12325 9.71999 6.11536 10.039 6.10535 10.3576C6.10273 10.4411 6.10341 10.5704 6.22108 10.5416C6.46948 10.4808 6.71023 10.3867 6.94971 10.3077C6.834 9.55471 6.85342 9.18125 7.01072 9.0526C7.07994 9.10325 7.03592 9.17078 7.03554 9.23153C7.03377 9.51296 6.98809 9.79677 7.0744 10.0735C7.10512 10.172 7.14079 10.2699 7.26666 10.2705C7.41231 10.2712 7.55796 10.2706 7.69956 10.2706C7.7368 10.0912 7.58324 9.91775 7.72393 9.73435C7.81273 9.83547 7.78398 9.94812 7.8238 10.0372C7.87744 10.1571 7.87808 10.2976 8.04706 10.3466C8.73866 10.5472 9.40065 10.5097 10.05 10.1689C10.6659 9.84578 11.3136 9.60778 12.0048 9.52133C12.1465 9.50362 12.1466 9.40837 12.146 9.30257C12.1436 8.89679 12.1591 8.49076 12.1173 8.08564C12.1087 8.00237 12.0738 7.89742 12.1801 7.84303C12.2631 7.88187 12.2536 7.95318 12.2562 8.01594C12.2714 8.38502 12.2893 8.75409 12.2971 9.12337C12.3046 9.48346 12.2997 9.48328 12.6563 9.44901C12.7052 9.44431 12.7551 9.43825 12.8035 9.44316C12.9991 9.46295 13.0466 9.35845 13.0312 9.17927C13.0241 9.09642 12.9653 8.9931 13.0906 8.9188C13.1697 9.01583 13.1665 9.14039 13.1709 9.24471C13.1788 9.43172 13.2696 9.47216 13.4262 9.47954C13.6006 9.48776 13.7746 9.5158 13.9476 9.54315C14.6195 9.64935 15.2869 9.7918 15.9683 9.82049C16.389 9.8382 16.3928 9.8315 16.3692 9.39444C16.3283 8.63491 16.1121 7.91602 15.8846 7.19989C15.8628 7.13144 15.8002 7.05957 15.8743 6.98304C15.9614 6.99075 15.9668 7.06723 15.9875 7.12288C16.2836 7.91777 16.4929 8.73397 16.5471 9.5875C16.5511 9.65137 16.5327 9.73857 16.6002 9.76296C16.7347 9.81158 16.8825 9.80342 17.0142 9.76184C17.1257 9.7266 17.064 9.59851 17.0804 9.51166C17.1037 9.38794 17.0201 9.24879 17.1348 9.10774C17.2523 9.31421 17.179 9.54189 17.3096 9.73868ZM8.53825 13.2051C8.41266 14.1366 8.00445 14.97 7.6812 15.8327C7.38513 16.6229 7.07629 17.4086 6.89737 18.2393C6.68686 19.2167 6.61568 20.2129 6.51145 21.2054C6.37385 22.5155 6.3574 23.8171 6.61056 25.1168C6.74562 25.8101 6.98159 26.4234 7.61513 26.7919C7.86104 26.935 8.1205 27.0481 8.38769 27.1351C9.73166 27.573 11.1074 27.7528 12.5164 27.6736C13.8183 27.6005 15.045 27.2395 16.2122 26.657C17.0327 26.2476 17.6127 25.6193 17.7783 24.6597C17.8926 23.9973 17.872 23.3258 17.7803 22.6674C17.5108 20.7314 17.0719 18.8312 16.5775 16.9442C16.3887 16.2238 16.1102 15.5311 15.9523 14.8024C15.8484 14.323 15.7719 13.8373 15.6883 13.3534C15.6618 13.2006 15.5998 13.1149 15.4368 13.0903C14.7783 12.9907 14.1244 12.8533 13.4638 12.7759C12.395 12.6508 11.3194 12.6417 10.2457 12.6873C9.74293 12.7087 9.23784 12.7493 8.7479 12.8944C8.60472 12.9368 8.52759 13.0104 8.53825 13.2051ZM15.7608 10.1144C15.31 10.0992 14.8713 9.99549 14.4295 9.91701C13.524 9.75616 12.62 9.71539 11.7102 9.89146C11.136 10.0026 10.6207 10.2677 10.0947 10.506C9.51238 10.7698 8.92425 10.8824 8.29428 10.6919C7.91586 10.5775 7.52587 10.5545 7.12741 10.6173C6.51269 10.7143 5.98005 10.9971 5.47718 11.3483C4.7933 11.8259 4.06027 12.104 3.2204 12.0336C3.05524 12.0198 2.88226 12.0464 2.71878 12.0827C2.39459 12.1547 2.10655 12.2906 1.94275 12.6206C1.87026 12.7666 1.87618 12.8738 2.01102 12.9769C2.19503 13.1176 2.39301 13.2177 2.61817 13.2627C3.22151 13.3834 3.83678 13.3194 4.44355 13.3915C5.0542 13.464 5.63515 13.6192 5.9969 14.1787C6.38475 14.7786 6.94398 14.8707 7.56612 14.8399C7.63246 14.8366 7.69255 14.8218 7.72651 14.756C7.87452 14.4691 7.95661 14.1587 8.07518 13.8231C7.54888 13.8203 7.06992 13.7838 6.61558 13.5204C6.72611 13.4164 6.80317 13.4826 6.87701 13.5033C7.14783 13.5793 7.4172 13.6575 7.70205 13.6558C8.15808 13.6531 8.23015 13.5799 8.23128 13.0979C7.98762 13.0845 7.73367 13.2378 7.44558 13.0469C7.71998 12.9697 7.95481 12.9283 8.1705 12.8381C8.71475 12.6105 9.2732 12.4821 9.8596 12.4202C10.9913 12.3007 12.1199 12.3291 13.2445 12.4514C14.1216 12.5469 14.9898 12.7255 15.865 12.8431C16.3923 12.9141 16.9248 12.98 17.4577 12.8729C17.726 12.819 17.9946 12.7673 18.2633 12.7159C18.3302 12.7031 18.4135 12.6701 18.4406 12.7684C18.4664 12.8625 18.4053 12.9152 18.3229 12.9429C18.2895 12.9541 18.2569 12.9676 18.2235 12.9789C17.5306 13.2136 16.8187 13.238 16.0996 13.1824C16.0463 13.1783 15.9896 13.1444 15.9384 13.2093C15.937 13.4163 16.0305 13.5577 16.2261 13.6295C16.3516 13.6756 16.4744 13.7286 16.6089 13.7447C16.6805 13.7533 16.7636 13.7545 16.7866 13.8713C16.5287 13.9326 16.3091 13.7788 16.0514 13.7517C16.1158 14.1619 16.1848 14.5502 16.2904 14.931C16.3126 15.0112 16.3664 15.0463 16.448 15.0448C16.9955 15.0349 17.5371 15.0348 18.0377 14.729C18.5333 14.4263 19.0665 14.1985 19.6164 14.014C20.2352 13.8065 20.8822 13.767 21.5168 13.6532C21.9841 13.5695 22.4323 13.43 22.8128 13.119C22.9712 12.9896 22.9728 12.8968 22.8073 12.7819C22.6788 12.6928 22.5377 12.6242 22.3848 12.5913C21.5837 12.4186 20.9754 11.9814 20.5695 11.2359C20.3061 10.7523 19.8758 10.4674 19.3753 10.2909C18.8916 10.1204 18.391 10.0692 17.8829 10.0699C17.1883 10.0707 16.4956 10.1674 15.7608 10.1144Z" fill="white" stroke="white"/>
<path d="M19.0927 8.59029C19.1016 8.66933 19.141 8.73263 19.087 8.79142C18.9756 8.7351 18.8281 8.04851 18.8732 7.70996C19.0502 8.00281 19.0418 8.29627 19.0927 8.59029Z" fill="white" stroke="white"/>
<path d="M21.6678 8.90227C21.6809 8.97919 21.7194 9.04343 21.6187 9.1087C21.5091 8.84296 21.4731 8.57202 21.461 8.29236C21.6109 8.4597 21.6142 8.68117 21.6678 8.90227Z" fill="white" stroke="white"/>
<path d="M15.479 8.2901C15.4836 8.22533 15.4649 8.16965 15.5229 8.14197C15.6464 8.28521 15.6671 8.47721 15.5745 8.68409C15.4561 8.5767 15.5026 8.43207 15.479 8.2901Z" fill="white" stroke="white"/>
<path d="M14.5393 15.5674C14.7826 16.6841 15.2263 17.7131 15.5728 18.7757C15.9623 19.9701 16.1526 21.201 16.1822 22.4614C16.1949 23.0047 16.1728 23.5467 16.1677 24.0893C16.1668 24.1851 16.1765 24.2924 16.0844 24.3573C16.0016 24.3285 16.0108 24.2679 16.0134 24.2104C16.0292 23.8634 16.0573 23.5163 16.0586 23.1692C16.0616 22.4088 16.0149 21.6513 15.9208 20.8962C15.7699 19.685 15.3562 18.555 14.9413 17.4238C14.5347 16.3149 14.2784 15.1689 14.1664 13.9883C14.15 13.8155 14.117 13.6445 14.1255 13.4699C14.1265 13.4497 14.1363 13.4301 14.1764 13.4047C14.3008 14.1195 14.3767 14.8428 14.5393 15.5674Z" fill="white" stroke="white"/>
<path d="M9.45865 19.9235C9.44077 18.9905 9.43355 18.0786 9.52389 17.1521C9.67722 17.2119 9.63604 17.3036 9.63196 17.3744C9.57859 18.2998 9.54231 19.226 9.60672 20.1517C9.67071 21.0713 9.88606 21.9624 10.1212 22.8484C10.2674 23.3991 10.4123 23.95 10.5565 24.5011C10.5746 24.5701 10.5928 24.6422 10.4823 24.7561C10.2337 23.9505 10.044 23.1636 9.84122 22.3819C9.63418 21.5837 9.51313 20.7691 9.45865 19.9235Z" fill="white" stroke="white"/>
<path d="M7.01129 20.985C7.16754 20.2315 7.37765 19.514 7.60813 18.7633C7.73528 18.8924 7.67031 18.9828 7.64856 19.0627C7.47434 19.7027 7.25487 20.3298 7.1404 20.9869C7.06946 21.3941 7.05561 21.8068 7.03506 22.2177C7.00652 22.7885 7.00312 23.3606 6.98771 23.9322C6.98604 23.994 7.00478 24.0655 6.91956 24.1135C6.81654 24.0673 6.84066 23.9656 6.84041 23.8794C6.83767 22.9172 6.85026 21.9558 7.01129 20.985Z" fill="white" stroke="white"/>
<path d="M11.9652 18.7366C11.4891 17.6243 11.3228 16.4648 11.3053 15.2766C11.297 14.7191 11.3023 14.1614 11.3042 13.6039C11.3045 13.5272 11.2811 13.4445 11.3403 13.3658C11.4548 13.4055 11.412 13.5081 11.4126 13.58C11.4172 14.1303 11.4018 14.6811 11.419 15.2309C11.4443 16.0399 11.4938 16.8474 11.7153 17.6322C11.8412 18.0785 12.0082 18.5066 12.211 18.9211C12.2458 18.9922 12.3136 19.0626 12.2502 19.1694C12.0766 19.0792 12.06 18.8892 11.9652 18.7366Z" fill="white" stroke="white"/>
<path d="M12.8885 19.1837C13.6149 20.01 14.0474 20.969 14.2574 22.0416C14.2874 22.1945 14.2907 22.1938 14.2335 22.3217C14.1381 22.2931 14.1412 22.205 14.128 22.1304C13.9419 21.0728 13.5145 20.1367 12.8195 19.3315C12.6799 19.1699 12.5616 18.9884 12.4368 18.8136C12.3981 18.7594 12.3336 18.7069 12.4166 18.5748C12.5773 18.7825 12.7281 18.9772 12.8885 19.1837Z" fill="white" stroke="white"/>
<path d="M8.60647 21.4523C8.73984 20.8541 8.86251 20.2714 9.11523 19.7327C9.16056 19.7793 8.49351 22.6768 8.45436 22.7314C8.33805 22.6732 8.38748 22.5681 8.40187 22.489C8.46379 22.1484 8.53575 21.8098 8.60647 21.4523Z" fill="white" stroke="white"/>
<path d="M8.599 16.3882C8.8302 15.6733 9.05744 14.9753 9.2899 14.2612C9.41998 14.3517 9.37024 14.4253 9.35041 14.4862C9.04868 15.4125 8.74506 16.3382 8.43849 17.2628C8.41056 17.347 8.39422 17.4486 8.26005 17.495C8.20973 17.2786 8.36463 17.1317 8.41023 16.9597C8.4601 16.7715 8.53247 16.5897 8.599 16.3882Z" fill="white" stroke="white"/>
<path d="M12.9294 16.5157C12.9972 15.7008 13.0821 14.9091 13.2812 14.1371C13.3113 14.1412 13.3413 14.1453 13.3714 14.1495C13.2968 14.6634 13.2106 15.1758 13.1507 15.6915C13.0894 16.2179 13.0539 16.7476 13.0051 17.2973C12.8579 17.1845 12.8569 17.1695 12.9294 16.5157Z" fill="white" stroke="white"/>
<path d="M8.01181 24.6547C8.0902 24.9561 8.21959 25.2274 8.25555 25.5617C8.04608 25.4154 7.42841 23.3036 7.52788 23.0878C7.73294 23.5887 7.84517 24.122 8.01181 24.6547Z" fill="white" stroke="white"/>
<path d="M16.0876 18.5735C15.9082 18.1693 15.6256 17.8363 15.458 17.3771C15.7313 17.5169 16.5611 19.0517 16.5324 19.3301C16.3182 19.1013 16.2478 18.8167 16.0876 18.5735Z" fill="white" stroke="white"/>
<path d="M10.8422 19.148C10.9662 18.7219 11.0069 18.289 11.2121 17.9041C11.1735 18.4955 11.0134 19.0582 10.841 19.6213C10.7064 19.4634 10.8364 19.316 10.8422 19.148Z" fill="white" stroke="white"/>
<path d="M13.1008 21.6711C13.168 22.2769 13.1652 22.4931 13.0888 22.662C13.0042 22.5804 12.9251 21.5731 12.9916 21.3563C13.1229 21.4221 13.0889 21.5466 13.1008 21.6711Z" fill="white" stroke="white"/>
<path d="M13.8793 24.4044C13.8332 24.6937 13.7918 24.9652 13.7459 25.2662C13.5933 25.1086 13.7024 24.2313 13.8612 24.049C13.977 24.1559 13.8839 24.2757 13.8793 24.4044Z" fill="white" stroke="white"/>
<path d="M13.9569 17.9931C13.8441 17.634 13.7234 17.2943 13.5741 16.9573C13.7054 16.9268 13.7325 17.0061 13.7626 17.0642C13.8955 17.3202 13.9837 17.5942 14.0512 17.8752C14.0669 17.9404 14.0985 18.0317 13.9569 17.9931Z" fill="white" stroke="white"/>
<path d="M11.0593 22.5025C11.0609 22.6171 10.99 22.6494 10.9532 22.5701C10.8088 22.2586 10.686 21.9363 10.5872 21.603C10.8304 21.8509 10.9213 22.1811 11.0593 22.5025Z" fill="white" stroke="white"/>
<path d="M15.1881 24.3174C15.1461 24.4604 15.1578 24.6036 15.0676 24.7161C14.9364 24.5872 15.0437 24.0597 15.2278 23.9312C15.2993 24.0659 15.2001 24.1803 15.1881 24.3174Z" fill="white" stroke="white"/>
<path d="M12.0954 20.0603C12.0709 20.2791 12.0482 20.4804 12.0228 20.7059C11.8735 20.5674 11.8862 20.2065 12.0184 19.9062C12.1161 19.9076 12.0988 19.9802 12.0954 20.0603Z" fill="white" stroke="white"/>
<path d="M11.9371 25.404C11.946 25.3443 11.9554 25.298 12.0062 25.2951C12.0569 25.2921 12.0767 25.3349 12.0797 25.3787C12.0861 25.4716 12.0775 25.5608 11.9909 25.6191C11.8765 25.5772 11.9439 25.4881 11.9371 25.404Z" fill="white" stroke="white"/>
<path d="M5.38696 12.3804C5.11519 12.5253 4.85106 12.6253 4.54691 12.5347C5.1608 12.4696 5.61531 12.0755 6.10748 11.7524C5.9431 12.056 5.66963 12.2115 5.38696 12.3804Z" fill="white" stroke="white"/>
<path d="M17.3009 11.8106C17.0819 11.7299 16.8659 11.6803 16.7133 11.4907C17.2023 11.6565 17.6943 11.7895 18.2053 11.8536C17.8966 11.9843 17.6088 11.8724 17.3009 11.8106Z" fill="white" stroke="white"/>
<path d="M14.2546 10.7676C13.8364 10.6802 13.4275 10.7224 12.983 10.7155C13.2281 10.4932 14.3405 10.5399 14.5446 10.749C14.4582 10.8455 14.3611 10.7634 14.2546 10.7676Z" fill="white" stroke="white"/>
<path d="M9.39646 11.3066C9.08579 11.3749 8.79183 11.423 8.4938 11.3222C8.91402 11.2479 9.33833 11.2195 9.74774 11.0824C9.68646 11.2611 9.53424 11.2526 9.39646 11.3066Z" fill="white" stroke="white"/>
<path d="M6.09866 12.3607C6.37284 12.0813 6.70424 11.9647 7.05932 11.9088C7.08901 11.995 7.06937 12.0231 7.04442 12.0292C6.73694 12.1052 6.45388 12.2415 6.17625 12.3931C6.15909 12.4025 6.12688 12.3825 6.09866 12.3607Z" fill="white" stroke="white"/>
<path d="M14.5608 11.0788C14.6167 11.0951 14.6583 11.1064 14.6561 11.1943C14.4807 11.2221 14.325 11.191 14.155 11.0549C14.317 10.9745 14.4285 11.0696 14.5608 11.0788Z" fill="white" stroke="white"/>
<path d="M9.87676 11.4396C10.0101 11.4305 10.1313 11.4305 10.2687 11.4305C10.2296 11.593 10.1197 11.5739 10.0341 11.5679C9.96572 11.5631 9.85183 11.5909 9.87676 11.4396Z" fill="white" stroke="white"/>
<path d="M18.2821 11.4986C18.2077 11.4506 18.1517 11.379 18.2634 11.3688C18.3555 11.3603 18.4856 11.3607 18.5526 11.4904C18.4638 11.585 18.3795 11.5248 18.2821 11.4986Z" fill="white" stroke="white"/>
<path d="M15.1939 11.9099C15.2512 11.9239 15.2949 11.9407 15.2893 11.9938C15.2835 12.0487 15.2378 12.0615 15.195 12.0458C15.1272 12.0209 15.0369 12.0564 14.9853 11.9595C15.0305 11.8686 15.1075 11.8968 15.1939 11.9099Z" fill="white" stroke="white"/>
</svg>
