<svg width="23" height="27" viewBox="0 0 23 27" fill="none" xmlns="http://www.w3.org/2000/svg">
<mask id="path-1-inside-1_6_258" fill="white">
<path d="M1.2476 12.3153C0.432588 12.0779 0.180836 11.4347 0.0641566 10.713C-0.0931217 9.74013 0.0524567 8.79076 0.351767 7.86056C0.76616 6.5727 1.34104 5.36554 2.20207 4.31349C3.3572 2.9021 4.80077 1.87713 6.48305 1.18207C7.61548 0.714194 8.79896 0.448758 10.013 0.328057C10.8913 0.240733 11.7728 0.248361 12.6557 0.309735C13.7457 0.385509 14.821 0.537106 15.8778 0.815016C17.5347 1.25072 18.9841 2.04528 20.1711 3.29546C21.0654 4.23735 21.6474 5.35956 22.0548 6.57822C22.3608 7.49383 22.6217 8.42331 22.7246 9.38745C22.7852 9.95493 22.8068 10.5254 22.6448 11.0828C22.3913 11.9549 21.7431 12.4009 20.9226 12.6514C20.4553 12.794 19.9681 12.834 19.487 12.8894C18.7112 12.9787 18.0053 13.2535 17.3384 13.6378C16.8456 13.9217 16.3352 14.1134 15.7569 14.0746C15.7296 14.0728 15.7015 14.0783 15.6744 14.0835C15.6615 14.086 15.6501 14.0959 15.6083 14.1185C15.6826 14.3593 15.7656 14.6054 15.8346 14.8553C16.3387 16.6817 16.7734 18.5248 17.0986 20.3913C17.2296 21.143 17.2733 21.9064 17.1901 22.673C17.066 23.8177 16.4463 24.6087 15.456 25.1365C14.389 25.7052 13.2436 26.023 12.0488 26.1785C10.4307 26.3891 8.84903 26.1912 7.29037 25.7526C6.78573 25.6106 6.30939 25.4008 5.9017 25.0586C5.31435 24.5656 5.11477 23.8861 4.98387 23.1703C4.77462 22.0259 4.78554 20.8778 4.89419 19.7247C4.98921 18.7161 5.10718 17.7107 5.28356 16.7135C5.44308 15.8117 5.80387 14.9723 6.13604 14.1253C6.15871 14.0675 6.1838 14.0106 6.21617 13.9332C6.08043 13.9116 5.95527 13.8815 5.82868 13.8732C5.38466 13.8441 5.01632 13.6527 4.75871 13.3031C4.30538 12.6879 3.68376 12.4933 2.95874 12.4812C2.3908 12.4717 1.81826 12.482 1.2476 12.3153ZM16.1463 8.4973C16.4312 8.49805 16.7166 8.48959 17.0009 8.50293C17.1787 8.51127 17.2249 8.45034 17.2204 8.27549C17.1971 7.36114 16.9806 6.50342 16.5118 5.71337C16.4775 5.6555 16.4139 5.5925 16.48 5.51536C16.5723 5.53069 16.5972 5.60279 16.63 5.65977C16.9012 6.13171 17.1214 6.62361 17.2434 7.15835C17.3334 7.55346 17.3504 7.95502 17.3872 8.35534C17.3939 8.42808 17.3915 8.5049 17.4829 8.54648C17.6606 8.62725 17.9111 8.60419 18.0749 8.4605C18.0725 8.71605 18.2742 8.73122 18.4347 8.79621C18.8895 8.98032 19.2802 9.24532 19.551 9.66656C19.5771 9.70718 19.5909 9.77217 19.668 9.77701C19.6993 9.22385 19.5699 8.68762 19.4915 8.11941C19.6376 8.17255 19.6339 8.26625 19.6542 8.34045C19.8025 8.88009 19.8225 9.43633 19.8593 9.98991C19.8716 10.1743 19.967 10.286 20.1214 10.373C20.1854 10.183 20.0814 9.9874 20.1877 9.81286C20.275 9.84429 20.2764 9.90803 20.2817 9.96942C20.2955 10.1285 20.3126 10.2873 20.3213 10.4467C20.3257 10.5281 20.3385 10.5968 20.4193 10.6375C20.7043 10.7811 21.0057 10.8712 21.3341 10.9442C21.3084 9.6461 21.0647 8.40338 20.7634 7.15634C20.908 7.16638 20.8981 7.24959 20.9174 7.31135C21.061 7.76942 21.1552 8.23916 21.2433 8.71002C21.3749 9.41315 21.4752 10.1203 21.4955 10.8368C21.4992 10.9657 21.5497 11.0588 21.6709 11.1194C21.7686 11.1683 21.8562 11.2372 21.9528 11.3C22.0342 11.2279 22.0635 11.1278 22.0987 11.0316C22.2912 10.5054 22.2575 9.96031 22.1991 9.4226C22.0982 8.49381 21.8395 7.59837 21.5509 6.71283C20.8068 4.42995 19.3408 2.78115 17.148 1.80965C15.6372 1.14028 14.024 0.883708 12.3844 0.809965C11.3223 0.762195 10.2613 0.795787 9.20489 0.962908C7.11753 1.29312 5.27109 2.14148 3.68364 3.52706C2.23578 4.79079 1.27952 6.37784 0.773759 8.22912C0.549624 9.04953 0.400093 9.88424 0.591234 10.7381C0.615406 10.8461 0.610222 10.9703 0.712019 11.0688C0.859582 10.8433 1.02723 10.6638 1.26538 10.5577C1.4946 10.4556 1.74897 10.4571 1.98103 10.3861C1.95992 8.84903 2.6803 6.58678 3.2477 6.39486C3.28596 6.45722 3.23994 6.50049 3.21042 6.54411C2.64254 7.38311 2.29514 8.30566 2.19218 9.31277C2.16143 9.61357 2.10069 9.91881 2.16688 10.2242C2.18641 10.3143 2.21085 10.4147 2.3274 10.4102C2.51165 10.4031 2.6953 10.3802 2.8875 10.3632C2.86949 10.0358 2.74142 9.73163 2.87645 9.40738C2.98712 9.49487 2.9641 9.57657 2.96299 9.64845C2.96082 9.78845 2.97677 9.92514 3.00819 10.0612C3.06446 10.3048 3.1035 10.3316 3.33415 10.2469C3.8736 10.0488 4.33711 9.70846 4.83732 9.43676C4.89422 9.40585 4.90425 9.35475 4.89959 9.29444C4.85056 8.66063 4.92606 8.0345 5.02782 7.41145C5.10557 6.93544 5.24205 6.47715 5.5107 6.06853C5.54855 6.01095 5.57474 5.92314 5.67153 5.95962C5.71299 6.03197 5.66907 6.07633 5.64142 6.12157C5.25623 6.75207 5.15447 7.45844 5.09655 8.17488C5.07194 8.47937 5.06412 8.78535 5.05422 9.09083C5.05162 9.17098 5.05229 9.29498 5.16878 9.26736C5.4147 9.20905 5.65304 9.11877 5.89012 9.043C5.77557 8.32086 5.7948 7.9627 5.95052 7.83932C6.01905 7.88789 5.97547 7.95265 5.97509 8.01092C5.97334 8.28083 5.92811 8.55301 6.01357 8.81845C6.04398 8.91292 6.07929 9.00673 6.2039 9.0073C6.34808 9.00797 6.49228 9.00746 6.63246 9.00746C6.66933 8.83537 6.51731 8.66904 6.65659 8.49314C6.7445 8.59013 6.71603 8.69816 6.75546 8.78355C6.80856 8.89857 6.8092 9.03337 6.97648 9.08036C7.66115 9.27267 8.31652 9.2367 8.95938 8.90993C9.56909 8.60001 10.2103 8.37176 10.8946 8.28885C11.0349 8.27186 11.035 8.18051 11.0344 8.07905C11.032 7.68989 11.0474 7.30049 11.0059 6.91195C10.9974 6.8321 10.9629 6.73144 11.0682 6.67927C11.1502 6.71653 11.1409 6.78492 11.1434 6.84511C11.1585 7.19908 11.1763 7.55303 11.1839 7.90719C11.1914 8.25253 11.1865 8.25235 11.5395 8.21949C11.5879 8.21498 11.6373 8.20917 11.6853 8.21388C11.879 8.23286 11.9259 8.13263 11.9107 7.9608C11.9036 7.88134 11.8455 7.78226 11.9695 7.71099C12.0479 7.80405 12.0447 7.92351 12.049 8.02355C12.0568 8.20291 12.1467 8.24169 12.3018 8.24877C12.4744 8.25666 12.6467 8.28355 12.8179 8.30978C13.4831 8.41163 14.1438 8.54824 14.8183 8.57576C15.2348 8.59275 15.2386 8.58631 15.2153 8.16716C15.1748 7.43873 14.9607 6.74928 14.7355 6.06248C14.714 5.99683 14.6519 5.92791 14.7253 5.85451C14.8116 5.8619 14.8169 5.93525 14.8374 5.98862C15.1306 6.75096 15.3377 7.53373 15.3913 8.35231C15.3954 8.41357 15.3771 8.49719 15.4439 8.52058C15.5771 8.56722 15.7235 8.55939 15.8538 8.51951C15.9642 8.48571 15.9031 8.36287 15.9193 8.27957C15.9425 8.16092 15.8596 8.02747 15.9732 7.8922C16.0896 8.09021 16.017 8.30856 16.1463 8.4973ZM7.46275 11.8217C7.33842 12.7151 6.9343 13.5143 6.61429 14.3418C6.32118 15.0996 6.01544 15.8532 5.8383 16.6498C5.62991 17.5871 5.55944 18.5425 5.45625 19.4944C5.32003 20.7509 5.30374 21.9992 5.55437 23.2456C5.68808 23.9106 5.92169 24.4988 6.54888 24.8522C6.79232 24.9894 7.04919 25.0979 7.3137 25.1813C8.64421 25.6012 10.0062 25.7737 11.4011 25.6977C12.69 25.6276 13.9043 25.2814 15.0599 24.7228C15.8721 24.3302 16.4464 23.7276 16.6103 22.8072C16.7234 22.172 16.703 21.528 16.6123 20.8966C16.3455 19.0398 15.9109 17.2175 15.4214 15.4077C15.2346 14.7168 14.9589 14.0525 14.8025 13.3536C14.6997 12.8939 14.624 12.428 14.5412 11.964C14.515 11.8174 14.4536 11.7353 14.2922 11.7116C13.6403 11.6162 12.993 11.4844 12.339 11.4102C11.2809 11.2902 10.2161 11.2814 9.15306 11.3252C8.65537 11.3457 8.15533 11.3846 7.67031 11.5237C7.52856 11.5644 7.4522 11.635 7.46275 11.8217ZM14.6129 8.85766C14.1667 8.84301 13.7324 8.74359 13.295 8.66833C12.3985 8.51406 11.5036 8.47496 10.603 8.64382C10.0344 8.7504 9.52438 9.00466 9.00362 9.23318C8.42713 9.48615 7.84489 9.59419 7.22123 9.4115C6.8466 9.30176 6.46051 9.27968 6.06604 9.33997C5.45748 9.43298 4.93017 9.70415 4.43234 10.041C3.7553 10.4991 3.02962 10.7657 2.19816 10.6982C2.03466 10.685 1.8634 10.7105 1.70156 10.7453C1.38062 10.8143 1.09547 10.9447 0.933313 11.2612C0.861549 11.4012 0.867403 11.504 1.00089 11.6029C1.18306 11.7379 1.37906 11.8338 1.60196 11.877C2.19926 11.9927 2.80837 11.9314 3.40906 12.0005C4.0136 12.0701 4.58873 12.2189 4.94686 12.7555C5.33082 13.3308 5.88445 13.4192 6.50035 13.3896C6.56603 13.3864 6.62553 13.3723 6.65914 13.3091C6.80567 13.034 6.88693 12.7363 7.00432 12.4145C6.48329 12.4117 6.00913 12.3767 5.55934 12.1241C5.66876 12.0245 5.74505 12.0879 5.81815 12.1077C6.08626 12.1807 6.35293 12.2557 6.63493 12.254C7.08639 12.2514 7.15774 12.1812 7.15886 11.7189C6.91764 11.7061 6.66623 11.8531 6.38103 11.67C6.65268 11.596 6.88515 11.5563 7.09868 11.4698C7.63749 11.2515 8.19034 11.1284 8.77087 11.069C9.89128 10.9544 11.0085 10.9816 12.1219 11.099C12.9901 11.1905 13.8497 11.3618 14.7161 11.4746C15.2382 11.5426 15.7653 11.6058 16.2929 11.5032C16.5584 11.4515 16.8244 11.4019 17.0904 11.3526C17.1567 11.3403 17.2391 11.3086 17.2659 11.403C17.2915 11.4932 17.231 11.5437 17.1494 11.5703C17.1164 11.5811 17.084 11.594 17.051 11.6049C16.365 11.8299 15.6602 11.8533 14.9484 11.8C14.8956 11.796 14.8395 11.7635 14.7888 11.8258C14.7874 12.0244 14.88 12.1599 15.0736 12.2288C15.1979 12.273 15.3195 12.3238 15.4526 12.3393C15.5235 12.3475 15.6057 12.3486 15.6284 12.4607C15.3731 12.5195 15.1558 12.372 14.9007 12.346C14.9644 12.7394 15.0327 13.1117 15.1372 13.477C15.1593 13.5539 15.2125 13.5875 15.2933 13.5861C15.8353 13.5767 16.3714 13.5765 16.8671 13.2833C17.3577 12.993 17.8856 12.7745 18.4299 12.5976C19.0425 12.3985 19.683 12.3606 20.3113 12.2515C20.7739 12.1712 21.2176 12.0374 21.5944 11.7392C21.7512 11.615 21.7528 11.5261 21.5889 11.4159C21.4616 11.3304 21.322 11.2646 21.1706 11.2331C20.3775 11.0675 19.7753 10.6482 19.3735 9.93324C19.1128 9.46937 18.6867 9.19614 18.1912 9.02692C17.7124 8.86337 17.2168 8.81429 16.7138 8.81491C16.0261 8.81576 15.3405 8.90847 14.6129 8.85766Z"/>
</mask>
<path d="M1.2476 12.3153C0.432588 12.0779 0.180836 11.4347 0.0641566 10.713C-0.0931217 9.74013 0.0524567 8.79076 0.351767 7.86056C0.76616 6.5727 1.34104 5.36554 2.20207 4.31349C3.3572 2.9021 4.80077 1.87713 6.48305 1.18207C7.61548 0.714194 8.79896 0.448758 10.013 0.328057C10.8913 0.240733 11.7728 0.248361 12.6557 0.309735C13.7457 0.385509 14.821 0.537106 15.8778 0.815016C17.5347 1.25072 18.9841 2.04528 20.1711 3.29546C21.0654 4.23735 21.6474 5.35956 22.0548 6.57822C22.3608 7.49383 22.6217 8.42331 22.7246 9.38745C22.7852 9.95493 22.8068 10.5254 22.6448 11.0828C22.3913 11.9549 21.7431 12.4009 20.9226 12.6514C20.4553 12.794 19.9681 12.834 19.487 12.8894C18.7112 12.9787 18.0053 13.2535 17.3384 13.6378C16.8456 13.9217 16.3352 14.1134 15.7569 14.0746C15.7296 14.0728 15.7015 14.0783 15.6744 14.0835C15.6615 14.086 15.6501 14.0959 15.6083 14.1185C15.6826 14.3593 15.7656 14.6054 15.8346 14.8553C16.3387 16.6817 16.7734 18.5248 17.0986 20.3913C17.2296 21.143 17.2733 21.9064 17.1901 22.673C17.066 23.8177 16.4463 24.6087 15.456 25.1365C14.389 25.7052 13.2436 26.023 12.0488 26.1785C10.4307 26.3891 8.84903 26.1912 7.29037 25.7526C6.78573 25.6106 6.30939 25.4008 5.9017 25.0586C5.31435 24.5656 5.11477 23.8861 4.98387 23.1703C4.77462 22.0259 4.78554 20.8778 4.89419 19.7247C4.98921 18.7161 5.10718 17.7107 5.28356 16.7135C5.44308 15.8117 5.80387 14.9723 6.13604 14.1253C6.15871 14.0675 6.1838 14.0106 6.21617 13.9332C6.08043 13.9116 5.95527 13.8815 5.82868 13.8732C5.38466 13.8441 5.01632 13.6527 4.75871 13.3031C4.30538 12.6879 3.68376 12.4933 2.95874 12.4812C2.3908 12.4717 1.81826 12.482 1.2476 12.3153ZM16.1463 8.4973C16.4312 8.49805 16.7166 8.48959 17.0009 8.50293C17.1787 8.51127 17.2249 8.45034 17.2204 8.27549C17.1971 7.36114 16.9806 6.50342 16.5118 5.71337C16.4775 5.6555 16.4139 5.5925 16.48 5.51536C16.5723 5.53069 16.5972 5.60279 16.63 5.65977C16.9012 6.13171 17.1214 6.62361 17.2434 7.15835C17.3334 7.55346 17.3504 7.95502 17.3872 8.35534C17.3939 8.42808 17.3915 8.5049 17.4829 8.54648C17.6606 8.62725 17.9111 8.60419 18.0749 8.4605C18.0725 8.71605 18.2742 8.73122 18.4347 8.79621C18.8895 8.98032 19.2802 9.24532 19.551 9.66656C19.5771 9.70718 19.5909 9.77217 19.668 9.77701C19.6993 9.22385 19.5699 8.68762 19.4915 8.11941C19.6376 8.17255 19.6339 8.26625 19.6542 8.34045C19.8025 8.88009 19.8225 9.43633 19.8593 9.98991C19.8716 10.1743 19.967 10.286 20.1214 10.373C20.1854 10.183 20.0814 9.9874 20.1877 9.81286C20.275 9.84429 20.2764 9.90803 20.2817 9.96942C20.2955 10.1285 20.3126 10.2873 20.3213 10.4467C20.3257 10.5281 20.3385 10.5968 20.4193 10.6375C20.7043 10.7811 21.0057 10.8712 21.3341 10.9442C21.3084 9.6461 21.0647 8.40338 20.7634 7.15634C20.908 7.16638 20.8981 7.24959 20.9174 7.31135C21.061 7.76942 21.1552 8.23916 21.2433 8.71002C21.3749 9.41315 21.4752 10.1203 21.4955 10.8368C21.4992 10.9657 21.5497 11.0588 21.6709 11.1194C21.7686 11.1683 21.8562 11.2372 21.9528 11.3C22.0342 11.2279 22.0635 11.1278 22.0987 11.0316C22.2912 10.5054 22.2575 9.96031 22.1991 9.4226C22.0982 8.49381 21.8395 7.59837 21.5509 6.71283C20.8068 4.42995 19.3408 2.78115 17.148 1.80965C15.6372 1.14028 14.024 0.883708 12.3844 0.809965C11.3223 0.762195 10.2613 0.795787 9.20489 0.962908C7.11753 1.29312 5.27109 2.14148 3.68364 3.52706C2.23578 4.79079 1.27952 6.37784 0.773759 8.22912C0.549624 9.04953 0.400093 9.88424 0.591234 10.7381C0.615406 10.8461 0.610222 10.9703 0.712019 11.0688C0.859582 10.8433 1.02723 10.6638 1.26538 10.5577C1.4946 10.4556 1.74897 10.4571 1.98103 10.3861C1.95992 8.84903 2.6803 6.58678 3.2477 6.39486C3.28596 6.45722 3.23994 6.50049 3.21042 6.54411C2.64254 7.38311 2.29514 8.30566 2.19218 9.31277C2.16143 9.61357 2.10069 9.91881 2.16688 10.2242C2.18641 10.3143 2.21085 10.4147 2.3274 10.4102C2.51165 10.4031 2.6953 10.3802 2.8875 10.3632C2.86949 10.0358 2.74142 9.73163 2.87645 9.40738C2.98712 9.49487 2.9641 9.57657 2.96299 9.64845C2.96082 9.78845 2.97677 9.92514 3.00819 10.0612C3.06446 10.3048 3.1035 10.3316 3.33415 10.2469C3.8736 10.0488 4.33711 9.70846 4.83732 9.43676C4.89422 9.40585 4.90425 9.35475 4.89959 9.29444C4.85056 8.66063 4.92606 8.0345 5.02782 7.41145C5.10557 6.93544 5.24205 6.47715 5.5107 6.06853C5.54855 6.01095 5.57474 5.92314 5.67153 5.95962C5.71299 6.03197 5.66907 6.07633 5.64142 6.12157C5.25623 6.75207 5.15447 7.45844 5.09655 8.17488C5.07194 8.47937 5.06412 8.78535 5.05422 9.09083C5.05162 9.17098 5.05229 9.29498 5.16878 9.26736C5.4147 9.20905 5.65304 9.11877 5.89012 9.043C5.77557 8.32086 5.7948 7.9627 5.95052 7.83932C6.01905 7.88789 5.97547 7.95265 5.97509 8.01092C5.97334 8.28083 5.92811 8.55301 6.01357 8.81845C6.04398 8.91292 6.07929 9.00673 6.2039 9.0073C6.34808 9.00797 6.49228 9.00746 6.63246 9.00746C6.66933 8.83537 6.51731 8.66904 6.65659 8.49314C6.7445 8.59013 6.71603 8.69816 6.75546 8.78355C6.80856 8.89857 6.8092 9.03337 6.97648 9.08036C7.66115 9.27267 8.31652 9.2367 8.95938 8.90993C9.56909 8.60001 10.2103 8.37176 10.8946 8.28885C11.0349 8.27186 11.035 8.18051 11.0344 8.07905C11.032 7.68989 11.0474 7.30049 11.0059 6.91195C10.9974 6.8321 10.9629 6.73144 11.0682 6.67927C11.1502 6.71653 11.1409 6.78492 11.1434 6.84511C11.1585 7.19908 11.1763 7.55303 11.1839 7.90719C11.1914 8.25253 11.1865 8.25235 11.5395 8.21949C11.5879 8.21498 11.6373 8.20917 11.6853 8.21388C11.879 8.23286 11.9259 8.13263 11.9107 7.9608C11.9036 7.88134 11.8455 7.78226 11.9695 7.71099C12.0479 7.80405 12.0447 7.92351 12.049 8.02355C12.0568 8.20291 12.1467 8.24169 12.3018 8.24877C12.4744 8.25666 12.6467 8.28355 12.8179 8.30978C13.4831 8.41163 14.1438 8.54824 14.8183 8.57576C15.2348 8.59275 15.2386 8.58631 15.2153 8.16716C15.1748 7.43873 14.9607 6.74928 14.7355 6.06248C14.714 5.99683 14.6519 5.92791 14.7253 5.85451C14.8116 5.8619 14.8169 5.93525 14.8374 5.98862C15.1306 6.75096 15.3377 7.53373 15.3913 8.35231C15.3954 8.41357 15.3771 8.49719 15.4439 8.52058C15.5771 8.56722 15.7235 8.55939 15.8538 8.51951C15.9642 8.48571 15.9031 8.36287 15.9193 8.27957C15.9425 8.16092 15.8596 8.02747 15.9732 7.8922C16.0896 8.09021 16.017 8.30856 16.1463 8.4973ZM7.46275 11.8217C7.33842 12.7151 6.9343 13.5143 6.61429 14.3418C6.32118 15.0996 6.01544 15.8532 5.8383 16.6498C5.62991 17.5871 5.55944 18.5425 5.45625 19.4944C5.32003 20.7509 5.30374 21.9992 5.55437 23.2456C5.68808 23.9106 5.92169 24.4988 6.54888 24.8522C6.79232 24.9894 7.04919 25.0979 7.3137 25.1813C8.64421 25.6012 10.0062 25.7737 11.4011 25.6977C12.69 25.6276 13.9043 25.2814 15.0599 24.7228C15.8721 24.3302 16.4464 23.7276 16.6103 22.8072C16.7234 22.172 16.703 21.528 16.6123 20.8966C16.3455 19.0398 15.9109 17.2175 15.4214 15.4077C15.2346 14.7168 14.9589 14.0525 14.8025 13.3536C14.6997 12.8939 14.624 12.428 14.5412 11.964C14.515 11.8174 14.4536 11.7353 14.2922 11.7116C13.6403 11.6162 12.993 11.4844 12.339 11.4102C11.2809 11.2902 10.2161 11.2814 9.15306 11.3252C8.65537 11.3457 8.15533 11.3846 7.67031 11.5237C7.52856 11.5644 7.4522 11.635 7.46275 11.8217ZM14.6129 8.85766C14.1667 8.84301 13.7324 8.74359 13.295 8.66833C12.3985 8.51406 11.5036 8.47496 10.603 8.64382C10.0344 8.7504 9.52438 9.00466 9.00362 9.23318C8.42713 9.48615 7.84489 9.59419 7.22123 9.4115C6.8466 9.30176 6.46051 9.27968 6.06604 9.33997C5.45748 9.43298 4.93017 9.70415 4.43234 10.041C3.7553 10.4991 3.02962 10.7657 2.19816 10.6982C2.03466 10.685 1.8634 10.7105 1.70156 10.7453C1.38062 10.8143 1.09547 10.9447 0.933313 11.2612C0.861549 11.4012 0.867403 11.504 1.00089 11.6029C1.18306 11.7379 1.37906 11.8338 1.60196 11.877C2.19926 11.9927 2.80837 11.9314 3.40906 12.0005C4.0136 12.0701 4.58873 12.2189 4.94686 12.7555C5.33082 13.3308 5.88445 13.4192 6.50035 13.3896C6.56603 13.3864 6.62553 13.3723 6.65914 13.3091C6.80567 13.034 6.88693 12.7363 7.00432 12.4145C6.48329 12.4117 6.00913 12.3767 5.55934 12.1241C5.66876 12.0245 5.74505 12.0879 5.81815 12.1077C6.08626 12.1807 6.35293 12.2557 6.63493 12.254C7.08639 12.2514 7.15774 12.1812 7.15886 11.7189C6.91764 11.7061 6.66623 11.8531 6.38103 11.67C6.65268 11.596 6.88515 11.5563 7.09868 11.4698C7.63749 11.2515 8.19034 11.1284 8.77087 11.069C9.89128 10.9544 11.0085 10.9816 12.1219 11.099C12.9901 11.1905 13.8497 11.3618 14.7161 11.4746C15.2382 11.5426 15.7653 11.6058 16.2929 11.5032C16.5584 11.4515 16.8244 11.4019 17.0904 11.3526C17.1567 11.3403 17.2391 11.3086 17.2659 11.403C17.2915 11.4932 17.231 11.5437 17.1494 11.5703C17.1164 11.5811 17.084 11.594 17.051 11.6049C16.365 11.8299 15.6602 11.8533 14.9484 11.8C14.8956 11.796 14.8395 11.7635 14.7888 11.8258C14.7874 12.0244 14.88 12.1599 15.0736 12.2288C15.1979 12.273 15.3195 12.3238 15.4526 12.3393C15.5235 12.3475 15.6057 12.3486 15.6284 12.4607C15.3731 12.5195 15.1558 12.372 14.9007 12.346C14.9644 12.7394 15.0327 13.1117 15.1372 13.477C15.1593 13.5539 15.2125 13.5875 15.2933 13.5861C15.8353 13.5767 16.3714 13.5765 16.8671 13.2833C17.3577 12.993 17.8856 12.7745 18.4299 12.5976C19.0425 12.3985 19.683 12.3606 20.3113 12.2515C20.7739 12.1712 21.2176 12.0374 21.5944 11.7392C21.7512 11.615 21.7528 11.5261 21.5889 11.4159C21.4616 11.3304 21.322 11.2646 21.1706 11.2331C20.3775 11.0675 19.7753 10.6482 19.3735 9.93324C19.1128 9.46937 18.6867 9.19614 18.1912 9.02692C17.7124 8.86337 17.2168 8.81429 16.7138 8.81491C16.0261 8.81576 15.3405 8.90847 14.6129 8.85766Z" fill="white" stroke="white" stroke-width="2" mask="url(#path-1-inside-1_6_258)"/>
<mask id="path-2-inside-2_6_258" fill="white">
<path d="M17.9115 7.39591C17.9203 7.47171 17.9593 7.53242 17.9058 7.58881C17.7956 7.5348 17.6496 6.87632 17.6942 6.55164C17.8694 6.83249 17.8611 7.11393 17.9115 7.39591Z"/>
</mask>
<path d="M17.9115 7.39591C17.9203 7.47171 17.9593 7.53242 17.9058 7.58881C17.7956 7.5348 17.6496 6.87632 17.6942 6.55164C17.8694 6.83249 17.8611 7.11393 17.9115 7.39591Z" fill="white"/>
<path d="M17.9115 7.39591L18.905 7.28158L18.9014 7.25052L18.8959 7.21974L17.9115 7.39591ZM17.9058 7.58881L17.4658 8.48677L18.1256 8.81017L18.6314 8.277L17.9058 7.58881ZM17.6942 6.55164L18.5426 6.02237L17.0797 3.6772L16.7035 6.41552L17.6942 6.55164ZM16.9181 7.51025C16.9276 7.59297 16.9443 7.6615 16.9484 7.67904C16.9572 7.71642 16.9466 7.67564 16.9406 7.63003C16.9331 7.57324 16.923 7.4516 16.9607 7.30164C17.0015 7.13966 17.0829 7.00335 17.1803 6.90062L18.6314 8.277C18.7555 8.14608 18.8521 7.98103 18.9003 7.78945C18.9455 7.60987 18.9351 7.45774 18.9235 7.36926C18.9176 7.32456 18.9102 7.28771 18.9053 7.26513C18.9009 7.24481 18.8958 7.2233 18.8953 7.22117C18.8913 7.20424 18.8998 7.23676 18.905 7.28158L16.9181 7.51025ZM18.3459 6.69085C18.4918 6.76236 18.5832 6.85316 18.6267 6.90127C18.6741 6.95371 18.7035 6.99912 18.7181 7.02311C18.7464 7.06981 18.7565 7.09902 18.7539 7.09198C18.7501 7.08218 18.736 7.03899 18.7204 6.96532C18.7057 6.89571 18.6947 6.82222 18.6894 6.75892C18.6833 6.68706 18.6878 6.66655 18.6849 6.68775L16.7035 6.41552C16.6578 6.7479 16.7105 7.12683 16.7635 7.37813C16.7927 7.51642 16.8329 7.66827 16.8861 7.80726C16.9119 7.87463 16.9512 7.96669 17.0085 8.061C17.0422 8.11662 17.1809 8.34717 17.4658 8.48677L18.3459 6.69085ZM16.8457 7.08091C16.847 7.08301 16.8487 7.08579 16.8513 7.09329C16.8544 7.10227 16.8598 7.12037 16.8664 7.15593C16.8737 7.19492 16.8797 7.23877 16.8891 7.31205C16.8974 7.37693 16.9094 7.47285 16.9272 7.57209L18.8959 7.21974C18.8884 7.17799 18.8825 7.13298 18.8728 7.05701C18.8641 6.98944 18.8517 6.8925 18.8328 6.79078C18.7929 6.57559 18.7183 6.30398 18.5426 6.02237L16.8457 7.08091Z" fill="white" mask="url(#path-2-inside-2_6_258)"/>
<mask id="path-4-inside-3_6_258" fill="white">
<path d="M20.4608 7.69504C20.4738 7.76881 20.5119 7.83042 20.4121 7.89301C20.3037 7.63816 20.268 7.37832 20.256 7.11011C20.4045 7.27059 20.4077 7.48299 20.4608 7.69504Z"/>
</mask>
<path d="M20.4608 7.69504C20.4738 7.76881 20.5119 7.83042 20.4121 7.89301C20.3037 7.63816 20.268 7.37832 20.256 7.11011C20.4045 7.27059 20.4077 7.48299 20.4608 7.69504Z" fill="white"/>
<path d="M20.4608 7.69504L21.4457 7.52194L21.4396 7.4867L21.4309 7.45199L20.4608 7.69504ZM20.4121 7.89301L19.4919 8.28447L19.9508 9.36321L20.9438 8.74L20.4121 7.89301ZM20.256 7.11011L20.9901 6.43107L19.1351 4.42564L19.257 7.15472L20.256 7.11011ZM19.4759 7.86814C19.4839 7.91347 19.5069 8.01153 19.4969 7.96666C19.4964 7.96466 19.4747 7.87657 19.4796 7.75725C19.4854 7.61533 19.5267 7.45224 19.6259 7.30003C19.7167 7.16068 19.8223 7.08258 19.8805 7.04603L20.9438 8.74C21.0519 8.67216 21.1901 8.56288 21.3014 8.39207C21.4211 8.2084 21.4708 8.01356 21.4779 7.83919C21.4841 7.68742 21.4567 7.56618 21.4486 7.52992C21.4309 7.4508 21.4443 7.51349 21.4457 7.52194L19.4759 7.86814ZM21.3323 7.50156C21.2902 7.40247 21.2645 7.27691 21.255 7.06549L19.257 7.15472C19.2715 7.47973 19.3173 7.87386 19.4919 8.28447L21.3323 7.50156ZM19.5219 7.78914C19.4835 7.7476 19.4577 7.70552 19.4419 7.67255C19.4275 7.64255 19.4239 7.62547 19.4266 7.6357C19.4302 7.64953 19.4345 7.66995 19.4455 7.72647C19.4545 7.77307 19.4697 7.85378 19.4908 7.93809L21.4309 7.45199C21.4254 7.43028 21.4203 7.40492 21.4091 7.34704C21.3999 7.29909 21.3842 7.21661 21.3618 7.13078C21.3145 6.94952 21.2202 6.6798 20.9901 6.43107L19.5219 7.78914Z" fill="white" mask="url(#path-4-inside-3_6_258)"/>
<mask id="path-6-inside-4_6_258" fill="white">
<path d="M14.334 7.10801C14.3385 7.04589 14.32 6.99249 14.3775 6.96594C14.4997 7.10331 14.5202 7.28746 14.4285 7.48586C14.3113 7.38287 14.3573 7.24416 14.334 7.10801Z"/>
</mask>
<path d="M14.334 7.10801C14.3385 7.04589 14.32 6.99249 14.3775 6.96594C14.4997 7.10331 14.5202 7.28746 14.4285 7.48586C14.3113 7.38287 14.3573 7.24416 14.334 7.10801Z" fill="white"/>
<path d="M14.334 7.10801L13.3367 7.03443L13.3277 7.15656L13.3484 7.27725L14.334 7.10801ZM14.3775 6.96594L15.1245 6.30116L14.6312 5.74684L13.9577 6.0583L14.3775 6.96594ZM14.4285 7.48586L13.7685 8.23711L14.7744 9.12089L15.3362 7.90542L14.4285 7.48586ZM15.3312 7.18159C15.3362 7.11393 15.3346 7.05221 15.3345 7.0498C15.3342 7.02562 15.3366 7.0818 15.3278 7.15057C15.3175 7.23092 15.2869 7.38209 15.1816 7.54159C15.0705 7.70984 14.9249 7.81454 14.7972 7.87359L13.9577 6.0583C13.8013 6.13061 13.6365 6.25194 13.5126 6.43962C13.3944 6.61854 13.3574 6.79193 13.344 6.8967C13.3321 6.98991 13.3346 7.07275 13.3347 7.07688C13.3351 7.10278 13.334 7.07103 13.3367 7.03443L15.3312 7.18159ZM13.6304 7.63072C13.5563 7.54745 13.5014 7.43222 13.4883 7.30415C13.476 7.18307 13.5056 7.09906 13.5208 7.0663L15.3362 7.90542C15.5632 7.41438 15.5581 6.78844 15.1245 6.30116L13.6304 7.63072ZM15.0885 6.73461C15.1741 6.80979 15.2433 6.90603 15.2885 7.01277C15.3299 7.11062 15.3392 7.18952 15.3417 7.21587C15.3429 7.22935 15.343 7.2363 15.3428 7.22986C15.3423 7.21518 15.3426 7.21944 15.3418 7.18624C15.3408 7.14482 15.3385 7.04916 15.3195 6.93877L13.3484 7.27725C13.3411 7.23494 13.3418 7.20767 13.3424 7.23377C13.3425 7.23776 13.3431 7.32503 13.3504 7.40287C13.359 7.49379 13.3802 7.63519 13.4466 7.79226C13.5169 7.95823 13.6243 8.11043 13.7685 8.23711L15.0885 6.73461Z" fill="white" mask="url(#path-6-inside-4_6_258)"/>
<mask id="path-8-inside-5_6_258" fill="white">
<path d="M13.4037 14.0874C13.6446 15.1584 14.0839 16.1452 14.4269 17.1642C14.8125 18.3098 15.0008 19.4902 15.0301 20.699C15.0427 21.2201 15.0208 21.7399 15.0158 22.2603C15.0149 22.3521 15.0245 22.4551 14.9333 22.5173C14.8513 22.4896 14.8604 22.4315 14.863 22.3764C14.8787 22.0436 14.9065 21.7108 14.9078 21.3778C14.9107 20.6486 14.8646 19.9221 14.7714 19.1979C14.622 18.0363 14.2124 16.9526 13.8017 15.8678C13.3991 14.8043 13.1454 13.7052 13.0345 12.5729C13.0183 12.4072 12.9856 12.2432 12.9941 12.0757C12.995 12.0564 13.0047 12.0375 13.0444 12.0132C13.1676 12.6988 13.2427 13.3924 13.4037 14.0874Z"/>
</mask>
<path d="M13.4037 14.0874C13.6446 15.1584 14.0839 16.1452 14.4269 17.1642C14.8125 18.3098 15.0008 19.4902 15.0301 20.699C15.0427 21.2201 15.0208 21.7399 15.0158 22.2603C15.0149 22.3521 15.0245 22.4551 14.9333 22.5173C14.8513 22.4896 14.8604 22.4315 14.863 22.3764C14.8787 22.0436 14.9065 21.7108 14.9078 21.3778C14.9107 20.6486 14.8646 19.9221 14.7714 19.1979C14.622 18.0363 14.2124 16.9526 13.8017 15.8678C13.3991 14.8043 13.1454 13.7052 13.0345 12.5729C13.0183 12.4072 12.9856 12.2432 12.9941 12.0757C12.995 12.0564 13.0047 12.0375 13.0444 12.0132C13.1676 12.6988 13.2427 13.3924 13.4037 14.0874Z" fill="white"/>
<path d="M13.4037 14.0874L14.3793 13.8679L14.3779 13.8617L13.4037 14.0874ZM14.4269 17.1642L13.4791 17.4833L14.4269 17.1642ZM15.0301 20.699L16.0298 20.6748V20.6748L15.0301 20.699ZM15.0158 22.2603L16.0158 22.2699V22.2699L15.0158 22.2603ZM14.9333 22.5173L14.6134 23.4648L15.0853 23.6241L15.4968 23.3434L14.9333 22.5173ZM14.863 22.3764L13.8641 22.3294L13.8641 22.3294L14.863 22.3764ZM14.9078 21.3778L15.9078 21.3818V21.3818L14.9078 21.3778ZM14.7714 19.1979L13.7796 19.3255L13.7796 19.3255L14.7714 19.1979ZM13.8017 15.8678L12.8665 16.2218L12.8665 16.2218L13.8017 15.8678ZM13.0345 12.5729L14.0297 12.4754L14.0297 12.4754L13.0345 12.5729ZM12.9941 12.0757L11.9953 12.0253L11.9953 12.0253L12.9941 12.0757ZM13.0444 12.0132L14.0286 11.8363L13.7695 10.3944L12.5211 11.161L13.0444 12.0132ZM12.428 14.3068C12.6829 15.4397 13.1776 16.5874 13.4791 17.4833L15.3746 16.8452C14.9901 15.703 14.6063 14.877 14.3793 13.8679L12.428 14.3068ZM13.4791 17.4833C13.8293 18.5236 14.0033 19.6035 14.0304 20.7232L16.0298 20.6748C15.9984 19.3769 15.7956 18.0959 15.3746 16.8452L13.4791 17.4833ZM14.0304 20.7232C14.0425 21.2241 14.0213 21.6846 14.0159 22.2506L16.0158 22.2699C16.0203 21.7952 16.0429 21.2161 16.0298 20.6748L14.0304 20.7232ZM14.0159 22.2506C14.0157 22.2685 14.0157 22.2896 14.0157 22.2951C14.0157 22.3048 14.0157 22.3053 14.0157 22.3028C14.0158 22.2998 14.0167 22.259 14.0283 22.2014C14.0407 22.1403 14.0675 22.0483 14.1278 21.948C14.1907 21.8436 14.2746 21.7562 14.3698 21.6912L15.4968 23.3434C15.8073 23.1316 15.9409 22.8334 15.9885 22.5985C16.0093 22.4959 16.0136 22.4082 16.015 22.3581C16.0157 22.332 16.0157 22.3089 16.0157 22.2952C16.0157 22.2773 16.0157 22.275 16.0158 22.2699L14.0159 22.2506ZM15.2532 21.5699C15.3375 21.5983 15.4609 21.6558 15.5797 21.7698C15.7047 21.8897 15.7816 22.0309 15.8223 22.1633C15.859 22.2826 15.8612 22.3786 15.8614 22.4131C15.8615 22.4339 15.8594 22.476 15.8619 22.4235L13.8641 22.3294C13.8653 22.3044 13.8612 22.3744 13.8614 22.4225C13.8617 22.4842 13.8663 22.6068 13.9106 22.751C13.9589 22.9082 14.0488 23.0726 14.195 23.2129C14.3351 23.3474 14.4881 23.4225 14.6134 23.4648L15.2532 21.5699ZM15.8619 22.4235C15.8752 22.1406 15.9064 21.7418 15.9078 21.3818L13.9078 21.3738C13.9066 21.6797 13.8822 21.9465 13.8641 22.3294L15.8619 22.4235ZM15.9078 21.3818C15.9109 20.6076 15.8619 19.8371 15.7632 19.0703L13.7796 19.3255C13.8673 20.0071 13.9106 20.6896 13.9078 21.3738L15.9078 21.3818ZM15.7632 19.0703C15.5964 17.7732 15.141 16.5809 14.737 15.5137L12.8665 16.2218C13.2839 17.3244 13.6476 18.2994 13.7796 19.3255L15.7632 19.0703ZM14.737 15.5137C14.3663 14.5346 14.1322 13.5219 14.0297 12.4754L12.0393 12.6704C12.1586 13.8885 12.432 15.074 12.8665 16.2218L14.737 15.5137ZM14.0297 12.4754C14.0242 12.4189 14.0176 12.3656 14.0123 12.3236C14.0065 12.2777 14.0025 12.2466 13.999 12.2151C13.9922 12.1535 13.9925 12.1317 13.9928 12.1262L11.9953 12.0253C11.982 12.2901 12.0361 12.6377 12.0393 12.6704L14.0297 12.4754ZM13.9928 12.1262C13.9843 12.2941 13.9292 12.4776 13.8096 12.6398C13.711 12.7735 13.6046 12.8426 13.5677 12.8653L12.5211 11.161C12.4445 11.2081 12.3134 11.2988 12.1998 11.4529C12.0653 11.6355 12.0048 11.8381 11.9953 12.0253L13.9928 12.1262ZM12.0602 12.1901C12.1647 12.7719 12.264 13.5985 12.4294 14.313L14.3779 13.8617C14.2214 13.1863 14.1705 12.6256 14.0286 11.8363L12.0602 12.1901Z" fill="white" mask="url(#path-8-inside-5_6_258)"/>
<mask id="path-10-inside-6_6_258" fill="white">
<path d="M8.37393 18.265C8.35623 17.3701 8.34908 16.4956 8.43852 15.6071C8.59031 15.6644 8.54954 15.7523 8.5455 15.8203C8.49267 16.7078 8.45675 17.596 8.52052 18.4838C8.58386 19.3658 8.79706 20.2204 9.02987 21.0701C9.17454 21.5982 9.31805 22.1266 9.46083 22.6551C9.47868 22.7212 9.49674 22.7904 9.3873 22.8997C9.14121 22.127 8.95344 21.3724 8.75267 20.6227C8.5477 19.8572 8.42787 19.0759 8.37393 18.265Z"/>
</mask>
<path d="M8.37393 18.265C8.35623 17.3701 8.34908 16.4956 8.43852 15.6071C8.59031 15.6644 8.54954 15.7523 8.5455 15.8203C8.49267 16.7078 8.45675 17.596 8.52052 18.4838C8.58386 19.3658 8.79706 20.2204 9.02987 21.0701C9.17454 21.5982 9.31805 22.1266 9.46083 22.6551C9.47868 22.7212 9.49674 22.7904 9.3873 22.8997C9.14121 22.127 8.95344 21.3724 8.75267 20.6227C8.5477 19.8572 8.42787 19.0759 8.37393 18.265Z" fill="white"/>
<path d="M8.37393 18.265L7.37412 18.2848L7.37459 18.3081L7.37613 18.3313L8.37393 18.265ZM8.43852 15.6071L8.79183 14.6716L7.57393 14.2116L7.44354 15.5069L8.43852 15.6071ZM8.5455 15.8203L9.54373 15.8797L9.54373 15.8797L8.5455 15.8203ZM8.52052 18.4838L7.52309 18.5555L7.52309 18.5555L8.52052 18.4838ZM9.02987 21.0701L9.99433 20.8059L9.99433 20.8059L9.02987 21.0701ZM9.46083 22.6551L10.4262 22.3944L10.4262 22.3944L9.46083 22.6551ZM9.3873 22.8997L8.43447 23.2031L8.93244 24.7666L10.0937 23.6074L9.3873 22.8997ZM8.75267 20.6227L7.78671 20.8813L7.78671 20.8813L8.75267 20.6227ZM9.37373 18.2452C9.35606 17.3519 9.35063 16.5303 9.43349 15.7072L7.44354 15.5069C7.34752 16.4608 7.35639 17.3884 7.37412 18.2848L9.37373 18.2452ZM8.0852 16.5426C8.03584 16.5239 7.92623 16.475 7.81463 16.364C7.6902 16.2402 7.60903 16.0847 7.57378 15.9244C7.54326 15.7856 7.55558 15.6778 7.55762 15.659C7.55841 15.6516 7.56013 15.6388 7.5571 15.6615C7.5555 15.6735 7.5501 15.7132 7.54726 15.7609L9.54373 15.8797C9.54191 15.9103 9.53867 15.9324 9.53948 15.9264C9.53959 15.9256 9.5397 15.9247 9.54009 15.9219C9.5404 15.9196 9.54092 15.9158 9.54148 15.9115C9.54259 15.9031 9.54433 15.8897 9.54605 15.8737C9.55213 15.8175 9.56591 15.6714 9.52711 15.4949C9.48359 15.297 9.3844 15.1045 9.22505 14.946C9.07852 14.8003 8.91709 14.7189 8.79183 14.6716L8.0852 16.5426ZM7.54727 15.7608C7.49401 16.6555 7.45436 17.5985 7.52309 18.5555L9.51795 18.4122C9.45915 17.5935 9.49133 16.7601 9.54373 15.8797L7.54727 15.7608ZM7.52309 18.5555C7.59402 19.543 7.83112 20.4792 8.06541 21.3344L9.99433 20.8059C9.763 19.9615 9.57371 19.1886 9.51795 18.4122L7.52309 18.5555ZM8.06541 21.3344C8.2097 21.861 8.35288 22.3882 8.49543 22.9159L10.4262 22.3944C10.2832 21.8649 10.1394 21.3354 9.99433 20.8059L8.06541 21.3344ZM8.49543 22.9159C8.50819 22.9632 8.45038 22.7946 8.48708 22.5871C8.52706 22.361 8.6433 22.2294 8.68086 22.1919L10.0937 23.6074C10.2407 23.4607 10.4027 23.2399 10.4565 22.9354C10.5071 22.6494 10.4313 22.4132 10.4262 22.3944L8.49543 22.9159ZM10.3401 22.5962C10.1034 21.8529 9.9253 21.1357 9.71864 20.364L7.78671 20.8813C7.98159 21.6091 8.17901 22.4011 8.43447 23.2031L10.3401 22.5962ZM9.71864 20.364C9.53269 19.6696 9.42194 18.9536 9.37172 18.1986L7.37613 18.3313C7.43379 19.1983 7.56271 20.0448 7.78671 20.8813L9.71864 20.364Z" fill="white" mask="url(#path-10-inside-6_6_258)"/>
<mask id="path-12-inside-7_6_258" fill="white">
<path d="M5.95108 19.2831C6.10577 18.5604 6.31377 17.8723 6.54195 17.1523C6.66782 17.2762 6.60351 17.3628 6.58197 17.4395C6.40949 18.0533 6.19222 18.6547 6.0789 19.2849C6.00867 19.6754 5.99496 20.0712 5.97462 20.4653C5.94636 21.0127 5.94299 21.5614 5.92774 22.1095C5.92609 22.1689 5.94464 22.2374 5.86027 22.2835C5.75828 22.2391 5.78216 22.1415 5.78192 22.0589C5.77921 21.1361 5.79166 20.2141 5.95108 19.2831Z"/>
</mask>
<path d="M5.95108 19.2831C6.10577 18.5604 6.31377 17.8723 6.54195 17.1523C6.66782 17.2762 6.60351 17.3628 6.58197 17.4395C6.40949 18.0533 6.19222 18.6547 6.0789 19.2849C6.00867 19.6754 5.99496 20.0712 5.97462 20.4653C5.94636 21.0127 5.94299 21.5614 5.92774 22.1095C5.92609 22.1689 5.94464 22.2374 5.86027 22.2835C5.75828 22.2391 5.78216 22.1415 5.78192 22.0589C5.77921 21.1361 5.79166 20.2141 5.95108 19.2831Z" fill="white"/>
<path d="M5.95108 19.2831L4.97323 19.0738L4.96891 19.094L4.96543 19.1143L5.95108 19.2831ZM6.54195 17.1523L7.24323 16.4395L6.08116 15.2963L5.58868 16.8502L6.54195 17.1523ZM6.58197 17.4395L5.61926 17.1689L5.61926 17.169L6.58197 17.4395ZM6.0789 19.2849L7.06312 19.4618L7.06312 19.4618L6.0789 19.2849ZM5.97462 20.4653L6.97329 20.5168L6.97329 20.5168L5.97462 20.4653ZM5.92774 22.1095L6.92736 22.1373L6.92736 22.1373L5.92774 22.1095ZM5.86027 22.2835L5.46153 23.2005L5.91044 23.3957L6.33995 23.1609L5.86027 22.2835ZM5.78192 22.0589L4.78192 22.0618V22.0619L5.78192 22.0589ZM6.92893 19.4924C7.07295 18.8195 7.26849 18.1699 7.49522 17.4545L5.58868 16.8502C5.35905 17.5748 5.13858 18.3013 4.97323 19.0738L6.92893 19.4924ZM5.84066 17.8652C5.80114 17.8263 5.73464 17.7493 5.68366 17.629C5.62932 17.5008 5.61157 17.3684 5.61934 17.2488C5.62626 17.1424 5.65252 17.0672 5.65582 17.0575C5.65584 17.0575 5.65951 17.047 5.65051 17.0721C5.64526 17.0867 5.63196 17.1238 5.61926 17.1689L7.54469 17.71C7.54222 17.7188 7.51366 17.8063 7.54919 17.7019C7.56667 17.6505 7.60519 17.5315 7.61513 17.3785C7.62594 17.2121 7.60201 17.03 7.52501 16.8483C7.45136 16.6746 7.34569 16.5403 7.24323 16.4395L5.84066 17.8652ZM5.61926 17.169C5.47362 17.6873 5.21897 18.4167 5.09469 19.1079L7.06312 19.4618C7.16548 18.8926 7.34537 18.4193 7.54469 17.71L5.61926 17.169ZM5.09469 19.1079C5.01053 19.5759 4.99483 20.0479 4.97595 20.4137L6.97329 20.5168C6.99509 20.0945 7.00681 19.775 7.06312 19.4618L5.09469 19.1079ZM4.97595 20.4137C4.94694 20.9756 4.94254 21.5639 4.92813 22.0817L6.92736 22.1373C6.94345 21.5589 6.94578 21.0498 6.97329 20.5168L4.97595 20.4137ZM4.92813 22.0817C4.92718 22.1158 4.92783 22.1442 4.92812 22.1563C4.9282 22.1596 4.92828 22.1627 4.92834 22.1648C4.92841 22.1673 4.92844 22.1683 4.92847 22.1695C4.92852 22.1717 4.92848 22.1703 4.92844 22.1674C4.92837 22.1614 4.92673 22.0931 4.94478 22.0037C4.96499 21.9035 5.00924 21.7772 5.09994 21.6536C5.18961 21.5314 5.29437 21.4532 5.38059 21.406L6.33995 23.1609C6.46836 23.0907 6.60244 22.9867 6.71241 22.8368C6.82341 22.6855 6.87895 22.5297 6.90527 22.3992C6.92944 22.2795 6.92874 22.18 6.92829 22.1431C6.92733 22.0643 6.92755 22.1303 6.92736 22.1373L4.92813 22.0817ZM6.25901 21.3664C6.37625 21.4174 6.5087 21.5084 6.61425 21.6538C6.71609 21.7941 6.75422 21.9317 6.76894 22.0188C6.77616 22.0615 6.77839 22.0956 6.77918 22.1161C6.77997 22.1364 6.77954 22.1501 6.77952 22.1511C6.77846 22.1882 6.78202 22.0916 6.78191 22.056L4.78192 22.0619C4.78189 22.0497 4.78229 22.0426 4.78199 22.0501C4.78196 22.0508 4.78086 22.0756 4.78033 22.0942C4.77923 22.1328 4.77679 22.2332 4.79694 22.3523C4.81847 22.4796 4.86977 22.6552 4.99582 22.8288C5.12558 23.0075 5.2933 23.1274 5.46153 23.2005L6.25901 21.3664ZM6.78191 22.056C6.77921 21.1358 6.79323 20.2899 6.93673 19.4519L4.96543 19.1143C4.79009 20.1382 4.7792 21.1364 4.78192 22.0618L6.78191 22.056Z" fill="white" mask="url(#path-12-inside-7_6_258)"/>
<mask id="path-14-inside-8_6_258" fill="white">
<path d="M10.8553 17.1268C10.3841 16.06 10.2194 14.948 10.202 13.8084C10.1939 13.2738 10.1991 12.7389 10.201 12.2042C10.2013 12.1307 10.1781 12.0514 10.2368 11.976C10.3501 12.014 10.3078 12.1124 10.3084 12.1813C10.3129 12.7091 10.2977 13.2373 10.3147 13.7646C10.3397 14.5405 10.3887 15.3149 10.6079 16.0676C10.7326 16.4956 10.898 16.9062 11.0987 17.3037C11.1332 17.3719 11.2003 17.4394 11.1375 17.5418C10.9657 17.4554 10.9492 17.2731 10.8553 17.1268Z"/>
</mask>
<path d="M10.8553 17.1268C10.3841 16.06 10.2194 14.948 10.202 13.8084C10.1939 13.2738 10.1991 12.7389 10.201 12.2042C10.2013 12.1307 10.1781 12.0514 10.2368 11.976C10.3501 12.014 10.3078 12.1124 10.3084 12.1813C10.3129 12.7091 10.2977 13.2373 10.3147 13.7646C10.3397 14.5405 10.3887 15.3149 10.6079 16.0676C10.7326 16.4956 10.898 16.9062 11.0987 17.3037C11.1332 17.3719 11.2003 17.4394 11.1375 17.5418C10.9657 17.4554 10.9492 17.2731 10.8553 17.1268Z" fill="white"/>
<path d="M10.8553 17.1268L9.94063 17.5308L9.97186 17.6016L10.0136 17.6666L10.8553 17.1268ZM10.202 13.8084L11.2019 13.7932V13.7932L10.202 13.8084ZM10.201 12.2042L11.201 12.2078V12.2078L10.201 12.2042ZM10.2368 11.976L10.5546 11.0278L9.88253 10.8025L9.44736 11.3621L10.2368 11.976ZM10.3084 12.1813L9.30839 12.1899V12.1899L10.3084 12.1813ZM10.3147 13.7646L11.3142 13.7323V13.7323L10.3147 13.7646ZM10.6079 16.0676L11.568 15.7879L11.568 15.7879L10.6079 16.0676ZM11.0987 17.3037L11.9913 16.8528L11.9913 16.8528L11.0987 17.3037ZM11.1375 17.5418L10.6883 18.4352L11.5096 18.8482L11.9901 18.0645L11.1375 17.5418ZM11.7701 16.7227C11.3696 15.8162 11.218 14.8473 11.2019 13.7932L9.20216 13.8236C9.22082 15.0486 9.39851 16.3037 9.94063 17.5308L11.7701 16.7227ZM11.2019 13.7932C11.194 13.2709 11.1991 12.7509 11.201 12.2078L9.20101 12.2007C9.19913 12.727 9.19383 13.2767 9.20216 13.8236L11.2019 13.7932ZM11.201 12.2078C11.2012 12.1468 11.1965 12.0857 11.1964 12.084C11.1952 12.0662 11.1977 12.0934 11.1961 12.1317C11.1944 12.1752 11.1873 12.2481 11.1598 12.3351C11.1311 12.4257 11.0861 12.5127 11.0261 12.5898L9.44736 11.3621C9.25482 11.6096 9.20521 11.8692 9.19781 12.0499C9.19467 12.1267 9.19922 12.1922 9.20051 12.2123C9.20284 12.2485 9.20092 12.2249 9.20101 12.2007L11.201 12.2078ZM9.91887 12.9241C9.80301 12.8852 9.63677 12.7988 9.50159 12.6222C9.36798 12.4476 9.32973 12.2697 9.31944 12.163C9.31054 12.0706 9.32053 12.0006 9.31867 12.0178C9.31826 12.0216 9.31843 12.0199 9.31733 12.0298C9.31661 12.0363 9.31537 12.0477 9.31413 12.0608C9.31185 12.0851 9.30789 12.1324 9.30839 12.1899L11.3083 12.1727C11.3088 12.2309 11.3004 12.2945 11.307 12.2332C11.3094 12.2113 11.3228 12.1015 11.3102 11.9711C11.2963 11.8264 11.2473 11.6124 11.0897 11.4066C10.9306 11.1987 10.7272 11.0857 10.5546 11.0278L9.91887 12.9241ZM9.30839 12.1899C9.31243 12.6583 9.29797 13.2632 9.31519 13.7969L11.3142 13.7323C11.2973 13.2115 11.3134 12.7598 11.3083 12.1727L9.30839 12.1899ZM9.31519 13.7969C9.34051 14.5815 9.39076 15.4647 9.64784 16.3472L11.568 15.7879C11.3866 15.1652 11.3389 14.4995 11.3142 13.7323L9.31519 13.7969ZM9.64784 16.3472C9.79104 16.8388 9.97988 17.3066 10.2061 17.7545L11.9913 16.8528C11.8161 16.5059 11.6742 16.1524 11.568 15.7879L9.64784 16.3472ZM10.2061 17.7545C10.2319 17.8056 10.2769 17.8807 10.263 17.8568C10.2628 17.8564 10.2611 17.8534 10.2584 17.8486C10.2558 17.8438 10.2518 17.8363 10.247 17.8267C10.2377 17.808 10.2236 17.7774 10.2097 17.7374C10.1806 17.6533 10.1533 17.5291 10.167 17.3798C10.1808 17.2293 10.2313 17.1068 10.285 17.0191L11.9901 18.0645C12.0752 17.9256 12.1408 17.7563 12.1586 17.5622C12.1763 17.3693 12.1418 17.2047 12.0995 17.0825C12.0604 16.9697 12.011 16.8843 11.9933 16.8537C11.9591 16.7947 11.9827 16.8358 11.9913 16.8528L10.2061 17.7545ZM11.5868 16.6484C11.6263 16.6683 11.6648 16.6927 11.7012 16.7215C11.7373 16.7502 11.7673 16.78 11.7916 16.8082C11.8384 16.8625 11.8601 16.9065 11.8616 16.9095C11.8625 16.9113 11.861 16.9085 11.8549 16.8946C11.8518 16.8875 11.8487 16.8805 11.8439 16.8696C11.8396 16.8598 11.834 16.8469 11.8279 16.8334C11.805 16.782 11.762 16.6881 11.6971 16.5869L10.0136 17.6666C9.99562 17.6386 9.98987 17.6223 10.0018 17.649C10.0039 17.6537 10.0412 17.7409 10.0728 17.8039C10.1558 17.97 10.3284 18.2542 10.6883 18.4352L11.5868 16.6484Z" fill="white" mask="url(#path-14-inside-8_6_258)"/>
<path d="M13.1009 20.565C13.0848 20.5603 13.0714 20.5539 13.0604 20.5462L13.1009 20.565ZM13.1009 20.565C13.1365 20.4879 13.1485 20.4596 13.1451 20.4128L13.1009 20.565Z" fill="white" stroke="white"/>
<mask id="path-17-inside-9_6_258" fill="white">
<path d="M7.53029 19.7311C7.66232 19.1574 7.78376 18.5985 8.03395 18.0819C8.07883 18.1266 7.41846 20.9055 7.3797 20.9579C7.26455 20.902 7.31349 20.8013 7.32774 20.7253C7.38904 20.3987 7.46028 20.074 7.53029 19.7311Z"/>
</mask>
<path d="M7.53029 19.7311C7.66232 19.1574 7.78376 18.5985 8.03395 18.0819C8.07883 18.1266 7.41846 20.9055 7.3797 20.9579C7.26455 20.902 7.31349 20.8013 7.32774 20.7253C7.38904 20.3987 7.46028 20.074 7.53029 19.7311Z" fill="white"/>
<path d="M7.53029 19.7311L6.55576 19.5068L6.55298 19.5189L6.5505 19.5311L7.53029 19.7311ZM8.03395 18.0819L8.73968 17.3734L7.74552 16.3831L7.13393 17.6461L8.03395 18.0819ZM7.3797 20.9579L6.94322 21.8576L7.6897 22.2197L8.1834 21.5529L7.3797 20.9579ZM7.32774 20.7253L8.31058 20.9098L8.31058 20.9098L7.32774 20.7253ZM8.50481 19.9554C8.64412 19.3501 8.74293 18.9122 8.93397 18.5178L7.13393 17.6461C6.82458 18.2848 6.68051 18.9648 6.55576 19.5068L8.50481 19.9554ZM7.32822 18.7904C7.19408 18.6568 7.13094 18.5179 7.10312 18.4466C7.07256 18.3681 7.05832 18.3018 7.05132 18.263C7.03756 18.1864 7.0364 18.1264 7.03618 18.1039C7.03568 18.0538 7.03965 18.0188 7.03982 18.0172C7.04095 18.0064 7.04066 18.0125 7.03481 18.0465C7.02413 18.1085 7.00487 18.2067 6.97745 18.3372C6.92337 18.5948 6.84564 18.9401 6.76416 19.2906C6.68287 19.6402 6.59926 19.989 6.53403 20.2518C6.50124 20.3839 6.47411 20.4903 6.45471 20.5628C6.44472 20.6002 6.43864 20.6216 6.43591 20.6307C6.43418 20.6365 6.43637 20.6287 6.44154 20.614C6.44389 20.6073 6.45076 20.5879 6.46155 20.5625C6.46202 20.5614 6.49985 20.4657 6.576 20.3628L8.1834 21.5529C8.26076 21.4484 8.3001 21.3497 8.30238 21.3444C8.31498 21.3147 8.32395 21.2898 8.32868 21.2763C8.33863 21.248 8.34672 21.2216 8.35195 21.2041C8.36313 21.1668 8.37516 21.1231 8.38685 21.0794C8.41081 20.9898 8.44128 20.87 8.47514 20.7336C8.54323 20.4592 8.62917 20.1006 8.71221 19.7435C8.79506 19.3871 8.87643 19.026 8.93476 18.7483C8.96355 18.6112 8.98882 18.4845 9.00581 18.3859C9.0138 18.3394 9.02314 18.2812 9.02902 18.2248C9.03157 18.2004 9.03671 18.1472 9.03608 18.084C9.03579 18.055 9.03424 17.9896 9.01975 17.909C9.01541 17.8849 8.97577 17.6086 8.73968 17.3734L7.32822 18.7904ZM7.81617 20.0581C7.92171 20.1093 8.06458 20.209 8.17255 20.3844C8.27993 20.5588 8.30415 20.7291 8.30516 20.8401C8.30564 20.8933 8.30094 20.9354 8.29716 20.9614C8.29342 20.9871 8.28937 21.0049 8.28857 21.0084C8.28809 21.0105 8.28795 21.011 8.28868 21.0081C8.28905 21.0066 8.28945 21.0049 8.29013 21.0022C8.29073 20.9997 8.29162 20.9961 8.29254 20.9924C8.29568 20.9795 8.30349 20.9476 8.31058 20.9098L6.3449 20.5409C6.34843 20.5221 6.35159 20.5099 6.34978 20.5173C6.34504 20.5367 6.35215 20.5076 6.34607 20.5324C6.34427 20.5397 6.34161 20.5507 6.33874 20.5633C6.32925 20.6049 6.30397 20.718 6.30524 20.8582C6.30662 21.0108 6.33931 21.2215 6.46946 21.4329C6.60018 21.6453 6.78012 21.7785 6.94322 21.8576L7.81617 20.0581ZM8.31058 20.9098C8.37009 20.5927 8.43603 20.2938 8.51008 19.9311L6.5505 19.5311C6.48453 19.8542 6.40799 20.2048 6.3449 20.5409L8.31058 20.9098Z" fill="white" mask="url(#path-17-inside-9_6_258)"/>
<mask id="path-19-inside-10_6_258" fill="white">
<path d="M7.52291 14.8746C7.75179 14.189 7.97675 13.5196 8.20689 12.8347C8.33566 12.9215 8.28642 12.9921 8.26678 13.0505C7.96808 13.9389 7.6675 14.8266 7.364 15.7134C7.33636 15.7941 7.32017 15.8916 7.18735 15.9361C7.13753 15.7286 7.29088 15.5877 7.33603 15.4227C7.38539 15.2422 7.45704 15.0679 7.52291 14.8746Z"/>
</mask>
<path d="M7.52291 14.8746C7.75179 14.189 7.97675 13.5196 8.20689 12.8347C8.33566 12.9215 8.28642 12.9921 8.26678 13.0505C7.96808 13.9389 7.6675 14.8266 7.364 15.7134C7.33636 15.7941 7.32017 15.8916 7.18735 15.9361C7.13753 15.7286 7.29088 15.5877 7.33603 15.4227C7.38539 15.2422 7.45704 15.0679 7.52291 14.8746Z" fill="white"/>
<path d="M7.52291 14.8746L8.46946 15.1972L8.47145 15.1913L7.52291 14.8746ZM8.20689 12.8347L8.76564 12.0054L7.67709 11.272L7.25898 12.5162L8.20689 12.8347ZM8.26678 13.0505L7.31893 12.7318L7.31893 12.7318L8.26678 13.0505ZM7.364 15.7134L8.31012 16.0372L8.31012 16.0372L7.364 15.7134ZM7.18735 15.9361L6.21497 16.1695L6.46979 17.231L7.50495 16.8843L7.18735 15.9361ZM7.33603 15.4227L6.37147 15.1588L6.37147 15.1588L7.33603 15.4227ZM8.47145 15.1913C8.69997 14.5067 8.92461 13.8382 9.1548 13.1533L7.25898 12.5162C7.02889 13.2009 6.80362 13.8712 6.57436 14.558L8.47145 15.1913ZM7.64814 13.6641C7.60845 13.6373 7.52164 13.5718 7.44187 13.4524C7.35322 13.3197 7.29946 13.1593 7.29318 12.9904C7.28754 12.8386 7.32244 12.7264 7.33461 12.6897C7.34064 12.6715 7.34603 12.658 7.34247 12.6672C7.342 12.6684 7.33001 12.6988 7.31893 12.7318L9.21464 13.3692C9.20847 13.3875 9.20231 13.4029 9.20779 13.3888C9.21017 13.3826 9.22163 13.3534 9.23303 13.319C9.25593 13.2499 9.29877 13.1036 9.2918 12.9161C9.27443 12.4491 8.9859 12.1538 8.76564 12.0054L7.64814 13.6641ZM7.31893 12.7318C7.02066 13.6189 6.72068 14.5049 6.41788 15.3896L8.31012 16.0372C8.61433 15.1484 8.91549 14.2589 9.21464 13.3692L7.31893 12.7318ZM6.41789 15.3896C6.41027 15.4118 6.40323 15.4341 6.40133 15.4401C6.39805 15.4503 6.39867 15.4481 6.40045 15.4431C6.40411 15.4327 6.4216 15.3836 6.45852 15.3223C6.4984 15.2561 6.55694 15.182 6.63894 15.1158C6.72028 15.0501 6.80219 15.0105 6.86974 14.9879L7.50495 16.8843C7.80106 16.7851 8.02741 16.5939 8.17171 16.3543C8.23274 16.253 8.26776 16.1616 8.28637 16.1089C8.29564 16.0827 8.3031 16.0593 8.30651 16.0486C8.31131 16.0335 8.31083 16.0351 8.31012 16.0372L6.41789 15.3896ZM8.15972 15.7027C8.17031 15.7468 8.17642 15.7934 8.17738 15.841C8.17834 15.8884 8.1741 15.9313 8.16746 15.9683C8.16093 16.0047 8.15243 16.0332 8.14589 16.0522C8.13951 16.0707 8.13438 16.0818 8.13401 16.0825C8.13398 16.0826 8.13602 16.0782 8.14441 16.062C8.14947 16.0522 8.15203 16.0473 8.1592 16.0335C8.16502 16.0223 8.17234 16.0081 8.1801 15.9927C8.19538 15.9623 8.21599 15.92 8.2367 15.8706C8.25761 15.8208 8.28085 15.7587 8.30058 15.6865L6.37147 15.1588C6.38693 15.1023 6.40498 15.0709 6.39339 15.094C6.38655 15.1076 6.38328 15.1135 6.36761 15.1438C6.35537 15.1675 6.33706 15.2034 6.31814 15.2443C6.23839 15.4171 6.11449 15.7509 6.21497 16.1695L8.15972 15.7027ZM8.30058 15.6865C8.34045 15.5408 8.37569 15.4723 8.46944 15.1972L6.57637 14.552C6.53839 14.6634 6.43033 14.9436 6.37147 15.1588L8.30058 15.6865Z" fill="white" mask="url(#path-19-inside-10_6_258)"/>
<mask id="path-21-inside-11_6_258" fill="white">
<path d="M11.8099 14.9968C11.877 14.2152 11.9611 13.456 12.1582 12.7156C12.188 12.7195 12.2177 12.7235 12.2475 12.7275C12.1736 13.2203 12.0884 13.7118 12.029 14.2063C11.9683 14.7112 11.9331 15.2191 11.8849 15.7463C11.7391 15.6382 11.7382 15.6238 11.8099 14.9968Z"/>
</mask>
<path d="M11.8099 14.9968C11.877 14.2152 11.9611 13.456 12.1582 12.7156C12.188 12.7195 12.2177 12.7235 12.2475 12.7275C12.1736 13.2203 12.0884 13.7118 12.029 14.2063C11.9683 14.7112 11.9331 15.2191 11.8849 15.7463C11.7391 15.6382 11.7382 15.6238 11.8099 14.9968Z" fill="white"/>
<path d="M11.8099 14.9968L12.8034 15.1104L12.805 15.0964L12.8062 15.0824L11.8099 14.9968ZM12.1582 12.7156L12.29 11.7243L11.4181 11.6083L11.1918 12.4584L12.1582 12.7156ZM12.2475 12.7275L13.2365 12.8757L13.3872 11.8702L12.3793 11.7362L12.2475 12.7275ZM12.029 14.2063L11.0361 14.0871L11.0361 14.0871L12.029 14.2063ZM11.8849 15.7463L11.289 16.5494L12.7186 17.6102L12.8808 15.8374L11.8849 15.7463ZM12.8062 15.0824C12.8726 14.309 12.9514 13.6235 13.1246 12.9728L11.1918 12.4584C10.9709 13.2885 10.8814 14.1215 10.8135 14.9112L12.8062 15.0824ZM12.0264 13.7068C12.0412 13.7088 12.0561 13.7108 12.071 13.7128C12.0859 13.7148 12.1008 13.7167 12.1157 13.7187L12.3793 11.7362C12.3645 11.7342 12.3496 11.7322 12.3347 11.7302C12.3198 11.7283 12.3049 11.7263 12.29 11.7243L12.0264 13.7068ZM11.2586 12.5792C11.1893 13.041 11.0977 13.5739 11.0361 14.0871L13.0218 14.3256C13.079 13.8496 13.1579 13.3996 13.2365 12.8757L11.2586 12.5792ZM11.0361 14.0871C10.9733 14.61 10.9346 15.1579 10.8891 15.6553L12.8808 15.8374C12.9317 15.2804 12.9634 14.8124 13.0218 14.3256L11.0361 14.0871ZM12.4808 14.9433C12.4614 14.9289 12.4733 14.937 12.4911 14.9525C12.5128 14.9713 12.5583 15.013 12.606 15.0776C12.6567 15.1463 12.6965 15.2223 12.7236 15.3009C12.749 15.3747 12.7577 15.4344 12.7609 15.4672C12.7641 15.4985 12.7631 15.5152 12.7633 15.5074C12.7635 15.5005 12.7643 15.4826 12.7673 15.4475C12.7735 15.3741 12.7849 15.272 12.8034 15.1104L10.8164 14.8832C10.799 15.0351 10.7836 15.1699 10.7744 15.2789C10.7661 15.3777 10.7563 15.5196 10.7708 15.6651C10.7881 15.84 10.8434 16.0577 10.9972 16.2659C11.1197 16.4317 11.2719 16.5367 11.289 16.5494L12.4808 14.9433Z" fill="white" mask="url(#path-21-inside-11_6_258)"/>
<mask id="path-23-inside-12_6_258" fill="white">
<path d="M6.9416 22.8024C7.0192 23.0915 7.14729 23.3517 7.1829 23.6723C6.97552 23.532 6.36404 21.5067 6.46251 21.2997C6.66551 21.7801 6.77662 22.2916 6.9416 22.8024Z"/>
</mask>
<path d="M6.9416 22.8024C7.0192 23.0915 7.14729 23.3517 7.1829 23.6723C6.97552 23.532 6.36404 21.5067 6.46251 21.2997C6.66551 21.7801 6.77662 22.2916 6.9416 22.8024Z" fill="white"/>
<path d="M6.9416 22.8024L7.9074 22.5431L7.9009 22.519L7.89321 22.4951L6.9416 22.8024ZM7.1829 23.6723L6.62274 24.5006L8.41573 25.7131L8.17678 23.5619L7.1829 23.6723ZM6.46251 21.2997L7.38363 20.9104L6.51649 18.8585L5.55949 20.8701L6.46251 21.2997ZM5.97579 23.0617C6.02352 23.2395 6.09903 23.4492 6.12749 23.5362C6.16577 23.6533 6.18238 23.723 6.18901 23.7827L8.17678 23.5619C8.14781 23.301 8.08257 23.0802 8.0285 22.9148C7.96461 22.7194 7.93728 22.6545 7.9074 22.5431L5.97579 23.0617ZM7.74305 22.8439C7.88404 22.9392 7.95392 23.0444 7.95819 23.0505C7.97563 23.0753 7.98061 23.0867 7.97354 23.0733C7.96008 23.0477 7.93418 22.9921 7.89775 22.9008C7.82659 22.7225 7.74299 22.4784 7.66509 22.2212C7.58716 21.9638 7.52178 21.716 7.48277 21.5313C7.46274 21.4365 7.45407 21.3788 7.45152 21.3538C7.45013 21.3402 7.45273 21.3567 7.45153 21.3924C7.45132 21.3986 7.45101 21.5496 7.36553 21.7293L5.55949 20.8701C5.46169 21.0756 5.45462 21.2667 5.45265 21.3254C5.4497 21.4136 5.45554 21.4949 5.46185 21.5568C5.4747 21.6827 5.49927 21.8184 5.52595 21.9447C5.58039 22.2024 5.66238 22.5084 5.75093 22.8008C5.83952 23.0933 5.94152 23.3948 6.04025 23.6422C6.08877 23.7638 6.1439 23.891 6.20318 24.0038C6.23249 24.0596 6.27178 24.129 6.32091 24.1991C6.35687 24.2503 6.45583 24.3878 6.62274 24.5006L7.74305 22.8439ZM5.54138 21.6889C5.7261 22.1261 5.78121 22.4632 5.98998 23.1097L7.89321 22.4951C7.77204 22.1199 7.60492 21.4341 7.38363 20.9104L5.54138 21.6889Z" fill="white" mask="url(#path-23-inside-12_6_258)"/>
<mask id="path-25-inside-13_6_258" fill="white">
<path d="M14.9365 16.9703C14.7588 16.5826 14.4791 16.2633 14.3132 15.8229C14.5838 15.9569 15.4052 17.4289 15.3768 17.696C15.1648 17.4764 15.0951 17.2035 14.9365 16.9703Z"/>
</mask>
<path d="M14.9365 16.9703C14.7588 16.5826 14.4791 16.2633 14.3132 15.8229C14.5838 15.9569 15.4052 17.4289 15.3768 17.696C15.1648 17.4764 15.0951 17.2035 14.9365 16.9703Z" fill="white"/>
<path d="M14.9365 16.9703L14.0273 17.3869L14.0624 17.4633L14.1096 17.5328L14.9365 16.9703ZM14.3132 15.8229L14.7572 14.9268L12.4824 13.7998L13.3774 16.1754L14.3132 15.8229ZM15.3768 17.696L14.6575 18.3906L16.1446 19.9304L16.3712 17.8018L15.3768 17.696ZM15.8456 16.5538C15.7245 16.2896 15.5673 16.0469 15.472 15.8921C15.3639 15.7164 15.296 15.5951 15.249 15.4703L13.3774 16.1754C13.4963 16.491 13.6513 16.7496 13.7689 16.9406C13.8993 17.1525 13.9708 17.2634 14.0273 17.3869L15.8456 16.5538ZM13.8693 16.7189C13.7792 16.6743 13.7252 16.6276 13.7126 16.6166C13.6946 16.6009 13.6884 16.5932 13.6949 16.6003C13.7082 16.6151 13.7378 16.6512 13.7829 16.7145C13.8714 16.8389 13.9798 17.0121 14.086 17.2005C14.192 17.3887 14.2837 17.5704 14.3436 17.7082C14.3742 17.7786 14.3892 17.8208 14.3944 17.8376C14.3969 17.8459 14.3927 17.834 14.3879 17.8071C14.3849 17.79 14.37 17.7067 14.3824 17.5901L16.3712 17.8018C16.3983 17.5473 16.3283 17.3223 16.3064 17.251C16.271 17.1356 16.2244 17.018 16.1777 16.9107C16.0832 16.6933 15.9579 16.4485 15.8283 16.2186C15.6988 15.9888 15.5529 15.7523 15.4122 15.5546C15.3426 15.4569 15.2639 15.3539 15.1806 15.2615C15.1215 15.1958 14.9725 15.0335 14.7572 14.9268L13.8693 16.7189ZM16.0961 17.0013C16.0955 17.0006 16.079 16.9848 16.0272 16.8834C16.0142 16.8579 16.0015 16.8324 15.9847 16.7987C15.969 16.7672 15.95 16.7291 15.9295 16.6897C15.8885 16.6108 15.834 16.5118 15.7633 16.4079L14.1096 17.5328C14.1423 17.5808 14.1531 17.6112 14.2461 17.7932C14.3218 17.9414 14.4462 18.1718 14.6575 18.3906L16.0961 17.0013Z" fill="white" mask="url(#path-25-inside-13_6_258)"/>
<mask id="path-27-inside-14_6_258" fill="white">
<path d="M9.74363 17.5213C9.86638 17.1126 9.90669 16.6974 10.1098 16.3282C10.0716 16.8954 9.91315 17.4351 9.74243 17.9751C9.60921 17.8237 9.73784 17.6824 9.74363 17.5213Z"/>
</mask>
<path d="M9.74363 17.5213C9.86638 17.1126 9.90669 16.6974 10.1098 16.3282C10.0716 16.8954 9.91315 17.4351 9.74243 17.9751C9.60921 17.8237 9.73784 17.6824 9.74363 17.5213Z" fill="white"/>
<path d="M9.74363 17.5213L8.78589 17.2337L8.74889 17.3569L8.74427 17.4854L9.74363 17.5213ZM10.1098 16.3282L11.1075 16.3955L9.23363 15.8462L10.1098 16.3282ZM9.74243 17.9751L8.9917 18.6357L10.1619 19.9656L10.6959 18.2766L9.74243 17.9751ZM10.7014 17.8089C10.7693 17.5827 10.8338 17.2826 10.8661 17.155C10.9097 16.9823 10.9458 16.8833 10.9859 16.8103L9.23363 15.8462C9.07071 16.1423 8.98504 16.4355 8.92706 16.6649C8.8577 16.9393 8.8407 17.0512 8.78589 17.2337L10.7014 17.8089ZM9.11205 16.261C9.08272 16.6962 8.95963 17.1338 8.78895 17.6737L10.6959 18.2766C10.8667 17.7365 11.0604 17.0946 11.1075 16.3955L9.11205 16.261ZM10.4932 17.3145C10.5289 17.3551 10.5674 17.4087 10.6006 17.4759C10.6342 17.544 10.6573 17.6158 10.6702 17.6881C10.6953 17.8295 10.6743 17.9358 10.6679 17.9649C10.6647 17.9799 10.6623 17.987 10.6657 17.9754C10.6675 17.9692 10.669 17.9641 10.6726 17.9519C10.6757 17.9415 10.6801 17.9266 10.6847 17.9103C10.7017 17.8502 10.7372 17.719 10.743 17.5572L8.74427 17.4854C8.74719 17.4041 8.76446 17.3509 8.7598 17.3675C8.75488 17.3849 8.7574 17.3752 8.74547 17.4161C8.73791 17.4421 8.72526 17.4865 8.71388 17.5387C8.69128 17.6423 8.66272 17.8223 8.70102 18.0379C8.74202 18.2687 8.84681 18.4711 8.9917 18.6357L10.4932 17.3145Z" fill="white" mask="url(#path-27-inside-14_6_258)"/>
<mask id="path-29-inside-15_6_258" fill="white">
<path d="M11.9796 19.9411C12.0461 20.5221 12.0433 20.7294 11.9678 20.8914C11.884 20.8132 11.8057 19.847 11.8715 19.6392C12.0015 19.7023 11.9678 19.8216 11.9796 19.9411Z"/>
</mask>
<path d="M11.9796 19.9411C12.0461 20.5221 12.0433 20.7294 11.9678 20.8914C11.884 20.8132 11.8057 19.847 11.8715 19.6392C12.0015 19.7023 11.9678 19.8216 11.9796 19.9411Z" fill="white"/>
<path d="M11.9796 19.9411L10.9844 20.0392L10.9852 20.047L10.9861 20.0549L11.9796 19.9411ZM11.9678 20.8914L11.2854 21.6224L12.2921 22.5622L12.8741 21.314L11.9678 20.8914ZM11.8715 19.6392L12.3083 18.7396L11.2672 18.2341L10.9181 19.3375L11.8715 19.6392ZM10.9861 20.0549C11.0192 20.344 11.028 20.4855 11.027 20.5608C11.0266 20.5923 11.0245 20.59 11.0288 20.5678C11.034 20.5405 11.0446 20.505 11.0614 20.4688L12.8741 21.314C13.0915 20.8478 13.0311 20.3343 12.9731 19.8273L10.9861 20.0549ZM12.6502 20.1604C12.7296 20.2346 12.7793 20.306 12.8058 20.348C12.8341 20.3929 12.8526 20.431 12.8635 20.455C12.8844 20.5014 12.8944 20.5351 12.8967 20.543C12.9017 20.5603 12.8996 20.5568 12.8935 20.5219C12.8823 20.4569 12.8698 20.3548 12.8605 20.2355C12.8512 20.1175 12.8465 20.0034 12.847 19.9165C12.8472 19.8726 12.8487 19.8461 12.8496 19.835C12.8501 19.8298 12.8498 19.8348 12.8478 19.8476C12.8462 19.8575 12.8402 19.8923 12.8249 19.9408L10.9181 19.3375C10.8494 19.5547 10.8475 19.8009 10.847 19.9065C10.8462 20.0616 10.8541 20.233 10.8666 20.3923C10.879 20.5503 10.8977 20.7174 10.9227 20.8621C10.9348 20.9319 10.952 21.0184 10.9771 21.1043C10.9894 21.1465 11.0096 21.2092 11.0408 21.2784C11.0623 21.326 11.1333 21.4804 11.2854 21.6224L12.6502 20.1604ZM11.4347 20.5387C11.3343 20.49 11.2163 20.4043 11.1215 20.2685C11.0303 20.1378 10.9975 20.0134 10.9851 19.943C10.9746 19.8835 10.9756 19.8405 10.9762 19.8707C10.9763 19.8776 10.9765 19.9589 10.9844 20.0392L12.9747 19.843C12.9768 19.8635 12.9768 19.8851 12.9758 19.8341C12.9753 19.8063 12.9744 19.7071 12.9546 19.595C12.9329 19.472 12.8834 19.2984 12.7616 19.1238C12.6362 18.9442 12.4736 18.8199 12.3083 18.7396L11.4347 20.5387Z" fill="white" mask="url(#path-29-inside-15_6_258)"/>
<mask id="path-31-inside-16_6_258" fill="white">
<path d="M12.7503 22.5624C12.7046 22.8399 12.6637 23.1003 12.6182 23.389C12.4672 23.2378 12.5751 22.3965 12.7324 22.2216C12.8471 22.3241 12.7549 22.439 12.7503 22.5624Z"/>
</mask>
<path d="M12.7503 22.5624C12.7046 22.8399 12.6637 23.1003 12.6182 23.389C12.4672 23.2378 12.5751 22.3965 12.7324 22.2216C12.8471 22.3241 12.7549 22.439 12.7503 22.5624Z" fill="white"/>
<path d="M12.7503 22.5624L13.737 22.7247L13.7472 22.6626L13.7496 22.5997L12.7503 22.5624ZM12.6182 23.389L11.911 24.0959L13.3005 25.4861L13.6061 23.5444L12.6182 23.389ZM12.7324 22.2216L13.399 21.4761L12.6555 20.8113L11.9887 21.553L12.7324 22.2216ZM11.7635 22.4001C11.7172 22.6815 11.6757 22.9453 11.6304 23.2335L13.6061 23.5444C13.6516 23.2552 13.692 22.9982 13.737 22.7247L11.7635 22.4001ZM13.3255 22.682C13.4067 22.7632 13.4549 22.8426 13.482 22.8951C13.5096 22.9488 13.5245 22.9928 13.5322 23.0186C13.5466 23.0675 13.5476 23.0938 13.5467 23.0835C13.5451 23.0643 13.5444 23.0077 13.5536 22.9241C13.5626 22.8433 13.5769 22.7722 13.5894 22.7281C13.5956 22.7061 13.5973 22.7053 13.5907 22.7202C13.5871 22.7283 13.5785 22.747 13.5632 22.7726C13.5489 22.7968 13.5211 22.8401 13.476 22.8901L11.9887 21.553C11.7822 21.7827 11.6975 22.0682 11.6646 22.1849C11.6173 22.3525 11.5846 22.534 11.5658 22.7043C11.5472 22.8717 11.5381 23.0647 11.5538 23.2513C11.5616 23.3438 11.5776 23.462 11.6145 23.5865C11.6463 23.6939 11.7221 23.9069 11.911 24.0959L13.3255 22.682ZM12.0658 22.967C11.967 22.8786 11.8685 22.7432 11.8196 22.5644C11.7749 22.401 11.7913 22.2707 11.7991 22.2233C11.8031 22.1988 11.8071 22.1834 11.8063 22.1867C11.8059 22.188 11.8053 22.1904 11.8034 22.1978C11.8019 22.2037 11.7989 22.2152 11.7959 22.227C11.7854 22.2688 11.7562 22.3839 11.751 22.5252L13.7496 22.5997C13.7466 22.6792 13.7308 22.7336 13.7352 22.716C13.736 22.7129 13.7368 22.7097 13.7391 22.7008C13.741 22.6935 13.7442 22.6813 13.7475 22.668C13.7539 22.6422 13.7644 22.598 13.773 22.545C13.7901 22.4406 13.8083 22.2547 13.7488 22.0371C13.6851 21.804 13.5551 21.6157 13.399 21.4761L12.0658 22.967Z" fill="white" mask="url(#path-31-inside-16_6_258)"/>
<mask id="path-33-inside-17_6_258" fill="white">
<path d="M12.8271 16.4138C12.7155 16.0694 12.596 15.7436 12.4482 15.4204C12.5782 15.3911 12.6049 15.4672 12.6348 15.523C12.7663 15.7684 12.8536 16.0312 12.9205 16.3007C12.936 16.3633 12.9673 16.4508 12.8271 16.4138Z"/>
</mask>
<path d="M12.8271 16.4138C12.7155 16.0694 12.596 15.7436 12.4482 15.4204C12.5782 15.3911 12.6049 15.4672 12.6348 15.523C12.7663 15.7684 12.8536 16.0312 12.9205 16.3007C12.936 16.3633 12.9673 16.4508 12.8271 16.4138Z" fill="white"/>
<path d="M12.8271 16.4138L11.8758 16.7221L12.0441 17.2412L12.5717 17.3806L12.8271 16.4138ZM12.4482 15.4204L12.2282 14.445L11.0262 14.716L11.5388 15.8365L12.4482 15.4204ZM12.6348 15.523L11.7533 15.9952L11.7533 15.9952L12.6348 15.523ZM12.9205 16.3007L11.9499 16.5414L11.9499 16.5414L12.9205 16.3007ZM13.7784 16.1054C13.6594 15.7382 13.5265 15.3737 13.3575 15.0044L11.5388 15.8365C11.6655 16.1134 11.7716 16.4006 11.8758 16.7221L13.7784 16.1054ZM12.6682 16.3959C12.606 16.41 12.492 16.4262 12.3484 16.4C12.1934 16.3717 12.0518 16.3026 11.9372 16.2066C11.8329 16.1194 11.7761 16.0307 11.7546 15.9951C11.7476 15.9835 11.7155 15.9247 11.7533 15.9952L13.5163 15.0507C13.5391 15.0934 13.4925 15.0041 13.468 14.9635C13.4291 14.8988 13.3518 14.7826 13.2209 14.673C13.0796 14.5547 12.9051 14.4686 12.7076 14.4325C12.5214 14.3985 12.3553 14.4163 12.2282 14.445L12.6682 16.3959ZM11.7533 15.9952C11.8323 16.1425 11.8948 16.3193 11.9499 16.5414L13.8911 16.06C13.8125 15.7432 13.7004 15.3944 13.5163 15.0507L11.7533 15.9952ZM11.9499 16.5414C11.965 16.6024 11.9525 16.5528 11.9477 16.5256C11.9447 16.5086 11.9068 16.3256 11.9768 16.0993C12.0178 15.9665 12.0978 15.8125 12.2401 15.6797C12.3817 15.5475 12.5388 15.4796 12.6693 15.4482C12.895 15.394 13.0647 15.4422 13.0826 15.4469L12.5717 17.3806C12.6596 17.4038 12.878 17.4551 13.1368 17.3928C13.2838 17.3575 13.4535 17.2829 13.6047 17.1418C13.7564 17.0002 13.8427 16.8352 13.8876 16.6899C13.9653 16.4385 13.9255 16.2242 13.9166 16.1744C13.9059 16.1142 13.8837 16.0303 13.8911 16.06L11.9499 16.5414Z" fill="white" mask="url(#path-33-inside-17_6_258)"/>
<mask id="path-35-inside-18_6_258" fill="white">
<path d="M9.95854 20.7384C9.96018 20.8483 9.88992 20.8792 9.85353 20.8032C9.71055 20.5044 9.58901 20.1954 9.49113 19.8757C9.73198 20.1134 9.82197 20.4301 9.95854 20.7384Z"/>
</mask>
<path d="M9.95854 20.7384C9.96018 20.8483 9.88992 20.8792 9.85353 20.8032C9.71055 20.5044 9.58901 20.1954 9.49113 19.8757C9.73198 20.1134 9.82197 20.4301 9.95854 20.7384Z" fill="white"/>
<path d="M9.95854 20.7384L10.9584 20.7235L10.9554 20.5197L10.8728 20.3333L9.95854 20.7384ZM9.85353 20.8032L8.9515 21.2349L8.95151 21.2349L9.85353 20.8032ZM9.49113 19.8757L10.1936 19.164L8.53496 20.1686L9.49113 19.8757ZM8.95865 20.7532C8.95755 20.6792 8.96704 20.5642 9.02054 20.4315C9.07055 20.3075 9.1887 20.1007 9.44096 19.9629C9.72878 19.8057 10.0696 19.8091 10.3472 19.9535C10.589 20.0794 10.7061 20.2682 10.7556 20.3715L8.95151 21.2349C9.01915 21.3762 9.15865 21.5896 9.42389 21.7277C9.72479 21.8843 10.0899 21.8873 10.3996 21.7182C10.9205 21.4337 10.961 20.8982 10.9584 20.7235L8.95865 20.7532ZM10.7556 20.3715C10.6333 20.116 10.5301 19.8534 10.4473 19.5829L8.53496 20.1686C8.64791 20.5374 8.78779 20.8928 8.9515 21.2349L10.7556 20.3715ZM8.78867 20.5875C8.7935 20.5922 8.81627 20.6157 8.85984 20.7079C8.88231 20.7555 8.9052 20.8098 8.93624 20.8857C8.96448 20.9547 9.00273 21.0497 9.04425 21.1434L10.8728 20.3333C10.8461 20.2729 10.8219 20.2128 10.7873 20.1283C10.7555 20.0506 10.7152 19.9531 10.668 19.8533C10.5723 19.6506 10.4296 19.397 10.1936 19.164L8.78867 20.5875Z" fill="white" mask="url(#path-35-inside-18_6_258)"/>
<mask id="path-37-inside-19_6_258" fill="white">
<path d="M14.046 22.479C14.0045 22.6161 14.016 22.7534 13.9267 22.8613C13.7968 22.7377 13.9031 22.2318 14.0853 22.1085C14.1561 22.2378 14.0578 22.3474 14.046 22.479Z"/>
</mask>
<path d="M14.046 22.479C14.0045 22.6161 14.016 22.7534 13.9267 22.8613C13.7968 22.7377 13.9031 22.2318 14.0853 22.1085C14.1561 22.2378 14.0578 22.3474 14.046 22.479Z" fill="white"/>
<path d="M14.046 22.479L15.003 22.7692L15.0329 22.6707L15.0421 22.5682L14.046 22.479ZM13.9267 22.8613L13.2371 23.5855L14.0132 24.3245L14.6968 23.4992L13.9267 22.8613ZM14.0853 22.1085L14.9623 21.628L14.4346 20.665L13.5251 21.2802L14.0853 22.1085ZM13.0891 22.1888C13.0622 22.2774 13.0471 22.3554 13.0386 22.4023C13.0364 22.4145 13.0344 22.4258 13.0328 22.435C13.0309 22.4456 13.03 22.4511 13.0286 22.4587C13.0262 22.4724 13.0253 22.4769 13.0251 22.4779C13.0245 22.4808 13.0307 22.4488 13.0493 22.4024C13.0591 22.3781 13.0725 22.3493 13.0906 22.318C13.1089 22.2865 13.1307 22.2546 13.1565 22.2234L14.6968 23.4992C14.8957 23.259 14.9576 23.0085 14.9834 22.8843C14.9899 22.8528 14.995 22.8244 14.9985 22.8049C15.0028 22.7801 15.0038 22.7738 15.0062 22.7605C15.01 22.7397 15.0091 22.7491 15.003 22.7692L13.0891 22.1888ZM14.6162 22.1371C14.7462 22.2608 14.8053 22.3912 14.8315 22.4651C14.8585 22.5414 14.8655 22.6002 14.8677 22.6275C14.872 22.6801 14.8654 22.7008 14.8675 22.6907C14.8691 22.6834 14.8695 22.6886 14.8587 22.7102C14.8575 22.7126 14.8028 22.8305 14.6455 22.9369L13.5251 21.2802C13.2766 21.4482 13.1404 21.6755 13.0721 21.8113C12.9941 21.9663 12.942 22.1288 12.9104 22.2789C12.8794 22.426 12.8592 22.6042 12.8744 22.7903C12.8858 22.9308 12.9329 23.2959 13.2371 23.5855L14.6162 22.1371ZM13.2083 22.5891C13.1788 22.5352 13.154 22.4745 13.1367 22.4081C13.1194 22.3418 13.1119 22.2784 13.1109 22.2209C13.1088 22.1106 13.131 22.0326 13.1353 22.0175C13.1377 22.0093 13.1389 22.0062 13.1346 22.0191C13.1323 22.0257 13.1223 22.055 13.1139 22.0816C13.0959 22.1381 13.0626 22.25 13.05 22.3897L15.0421 22.5682C15.0354 22.6422 15.0188 22.691 15.0203 22.686C15.0217 22.6817 15.0221 22.6806 15.0301 22.657C15.0359 22.6396 15.047 22.6065 15.058 22.5682C15.0795 22.4931 15.1137 22.3553 15.1105 22.184C15.1071 21.999 15.0611 21.8083 14.9623 21.628L13.2083 22.5891Z" fill="white" mask="url(#path-37-inside-19_6_258)"/>
<mask id="path-39-inside-20_6_258" fill="white">
<path d="M10.9842 18.3962C10.96 18.606 10.9376 18.799 10.9124 19.0153C10.7646 18.8825 10.7771 18.5364 10.908 18.2484C11.0048 18.2497 10.9877 18.3193 10.9842 18.3962Z"/>
</mask>
<path d="M10.9842 18.3962C10.96 18.606 10.9376 18.799 10.9124 19.0153C10.7646 18.8825 10.7771 18.5364 10.908 18.2484C11.0048 18.2497 10.9877 18.3193 10.9842 18.3962Z" fill="white"/>
<path d="M10.9842 18.3962L11.9777 18.5108L11.9817 18.4757L11.9833 18.4404L10.9842 18.3962ZM10.9124 19.0153L10.2441 19.7591L11.6824 21.0515L11.9057 19.1308L10.9124 19.0153ZM10.908 18.2484L10.921 17.2485L10.2679 17.24L9.99763 17.8347L10.908 18.2484ZM9.99084 18.2816C9.96669 18.4908 9.94429 18.6835 9.91913 18.8998L11.9057 19.1308C11.9309 18.9146 11.9534 18.7211 11.9777 18.5108L9.99084 18.2816ZM11.5808 18.2714C11.7104 18.3879 11.7638 18.513 11.7845 18.5787C11.8056 18.6454 11.8058 18.6889 11.8057 18.6973C11.8056 18.7109 11.8056 18.6903 11.8184 18.6622L9.99763 17.8347C9.87952 18.0945 9.80786 18.3909 9.80574 18.6828C9.80396 18.9284 9.85257 19.4073 10.2441 19.7591L11.5808 18.2714ZM10.895 19.2483C10.8128 19.2473 10.6162 19.232 10.4093 19.0951C10.1759 18.9406 10.0638 18.7222 10.0187 18.5561C9.98182 18.4205 9.98773 18.3137 9.98793 18.3078C9.98825 18.2982 9.98873 18.2921 9.98805 18.3025C9.98769 18.3081 9.98622 18.3294 9.98523 18.3519L11.9833 18.4404C11.9831 18.4437 11.9829 18.4461 11.9838 18.4331C11.9843 18.425 11.9859 18.4009 11.9868 18.3739C11.9882 18.3333 11.993 18.1946 11.9487 18.0318C11.8962 17.8385 11.7705 17.5976 11.5132 17.4273C11.2824 17.2746 11.0516 17.2502 10.921 17.2485L10.895 19.2483Z" fill="white" mask="url(#path-39-inside-20_6_258)"/>
<path d="M10.9688 23.4969C10.9691 23.501 10.9693 23.5051 10.9695 23.5092L10.9578 23.5102L10.9624 23.4973L10.9672 23.4837C10.9679 23.488 10.9684 23.4924 10.9688 23.4969ZM10.9688 23.4969L10.9685 23.4969L10.9688 23.4969ZM10.8808 23.7274C10.8178 23.7051 10.8105 23.6687 10.8153 23.6269L10.8808 23.7274ZM10.8808 23.7274C10.8926 23.7197 10.903 23.7114 10.912 23.7027C10.912 23.7027 10.912 23.7027 10.912 23.7027C10.9572 23.6589 10.9699 23.6029 10.9704 23.543L10.9475 23.5395L10.909 23.648L10.909 23.648L10.8808 23.7274Z" fill="white" stroke="white"/>
<mask id="path-42-inside-21_6_258" fill="white">
<path d="M4.34302 11.0307C4.07397 11.1697 3.81249 11.2656 3.51139 11.1787C4.11913 11.1162 4.56909 10.7382 5.05633 10.4285C4.89359 10.7196 4.62287 10.8687 4.34302 11.0307Z"/>
</mask>
<path d="M4.34302 11.0307C4.07397 11.1697 3.81249 11.2656 3.51139 11.1787C4.11913 11.1162 4.56909 10.7382 5.05633 10.4285C4.89359 10.7196 4.62287 10.8687 4.34302 11.0307Z" fill="white"/>
<path d="M4.34302 11.0307L4.80182 11.9193L4.82326 11.9082L4.84413 11.8961L4.34302 11.0307ZM3.51139 11.1787L3.40919 10.1839L3.23396 12.1394L3.51139 11.1787ZM5.05633 10.4285L5.9292 10.9164L4.5198 9.58459L5.05633 10.4285ZM3.88423 10.1422C3.83269 10.1688 3.79526 10.1862 3.76635 10.1979C3.738 10.2094 3.72423 10.2128 3.72148 10.2134C3.71986 10.2138 3.72898 10.2116 3.74545 10.2119C3.76269 10.2121 3.77819 10.2149 3.78882 10.2179L3.23396 12.1394C3.92248 12.3382 4.48418 12.0833 4.80182 11.9193L3.88423 10.1422ZM3.61359 12.1734C4.103 12.1232 4.50299 11.9468 4.82132 11.7668C5.09094 11.6143 5.43444 11.3731 5.59286 11.2723L4.5198 9.58459C4.19098 9.79365 4.06588 9.89631 3.83678 10.0259C3.65638 10.1279 3.52752 10.1717 3.40919 10.1839L3.61359 12.1734ZM4.18345 9.94052C4.18337 9.94066 4.18267 9.94223 4.17826 9.94704C4.1731 9.95268 4.16118 9.96452 4.1367 9.98322C4.07563 10.0298 4.00171 10.0728 3.84192 10.1654L4.84413 11.8961C5.06849 11.7662 5.60834 11.4904 5.9292 10.9164L4.18345 9.94052Z" fill="white" mask="url(#path-42-inside-21_6_258)"/>
<mask id="path-44-inside-22_6_258" fill="white">
<path d="M16.1377 10.4844C15.9208 10.407 15.707 10.3594 15.5559 10.1776C16.0401 10.3366 16.5271 10.4641 17.0329 10.5256C16.7274 10.651 16.4424 10.5436 16.1377 10.4844Z"/>
</mask>
<path d="M16.1377 10.4844C15.9208 10.407 15.707 10.3594 15.5559 10.1776C16.0401 10.3366 16.5271 10.4641 17.0329 10.5256C16.7274 10.651 16.4424 10.5436 16.1377 10.4844Z" fill="white"/>
<path d="M16.1377 10.4844L15.8017 11.4263L15.8728 11.4516L15.9469 11.466L16.1377 10.4844ZM15.5559 10.1776L15.8679 9.22751L12.564 8.14274L14.7869 10.8169L15.5559 10.1776ZM17.0329 10.5256L17.4125 11.4508L20.9596 9.99553L17.1536 9.5329L17.0329 10.5256ZM16.4736 9.54253C16.4379 9.52978 16.404 9.51829 16.3759 9.50879C16.3451 9.49844 16.3242 9.49146 16.3016 9.4837C16.2577 9.46861 16.2385 9.46092 16.2291 9.45672C16.2215 9.45335 16.2328 9.45768 16.2531 9.47182C16.275 9.48714 16.3008 9.50941 16.3249 9.53837L14.7869 10.8169C15.1617 11.2677 15.7493 11.4076 15.8017 11.4263L16.4736 9.54253ZM15.244 11.1277C15.7647 11.2987 16.3192 11.4462 16.9123 11.5183L17.1536 9.5329C16.735 9.48202 16.3155 9.37448 15.8679 9.22751L15.244 11.1277ZM16.6534 9.60043C16.7106 9.57696 16.75 9.5871 16.7099 9.58205C16.6835 9.57873 16.6465 9.57194 16.579 9.55702C16.5252 9.54513 16.4213 9.5208 16.3284 9.50276L15.9469 11.466C15.9758 11.4716 16.2814 11.5439 16.4601 11.5664C16.715 11.5985 17.0497 11.5996 17.4125 11.4508L16.6534 9.60043Z" fill="white" mask="url(#path-44-inside-22_6_258)"/>
<mask id="path-46-inside-23_6_258" fill="white">
<path d="M13.1218 9.48392C12.7078 9.40013 12.303 9.44064 11.863 9.43395C12.1056 9.22083 13.2069 9.26557 13.4089 9.4661C13.3234 9.55866 13.2273 9.47992 13.1218 9.48392Z"/>
</mask>
<path d="M13.1218 9.48392C12.7078 9.40013 12.303 9.44064 11.863 9.43395C12.1056 9.22083 13.2069 9.26557 13.4089 9.4661C13.3234 9.55866 13.2273 9.47992 13.1218 9.48392Z" fill="white"/>
<path d="M13.1218 9.48392L12.9234 10.464L13.0405 10.4877L13.1598 10.4832L13.1218 9.48392ZM11.863 9.43395L11.2031 8.68259L9.25398 10.3944L11.8478 10.4338L11.863 9.43395ZM13.4089 9.4661L14.1434 10.1447L14.7982 9.43609L14.1134 8.75637L13.4089 9.4661ZM13.3202 8.5038C12.7859 8.39567 12.1689 8.43848 11.8782 8.43407L11.8478 10.4338C12.4371 10.4428 12.6297 10.4046 12.9234 10.464L13.3202 8.5038ZM12.5229 10.1853C12.4662 10.2351 12.4158 10.265 12.3853 10.2812C12.3538 10.2978 12.3307 10.3064 12.3207 10.3099C12.3029 10.3162 12.3059 10.3132 12.3376 10.3081C12.3666 10.3035 12.4074 10.2989 12.4587 10.2962C12.5094 10.2935 12.5649 10.2928 12.6222 10.2945C12.7416 10.298 12.8434 10.3107 12.9065 10.3243C12.9384 10.3311 12.941 10.3341 12.9226 10.3267C12.9125 10.3226 12.8879 10.3122 12.8545 10.2926C12.8228 10.274 12.7664 10.2373 12.7045 10.1758L14.1134 8.75637C13.9505 8.5947 13.7693 8.51138 13.6663 8.47012C13.5481 8.42276 13.4296 8.39097 13.3261 8.36876C13.1182 8.32417 12.8917 8.30147 12.6802 8.29533C12.4691 8.2892 12.2371 8.29852 12.0194 8.3336C11.8609 8.35914 11.4938 8.42726 11.2031 8.68259L12.5229 10.1853ZM12.6745 8.78745C12.7737 8.68008 12.918 8.583 13.0993 8.53748C13.2617 8.4967 13.3896 8.51422 13.4298 8.52062C13.4511 8.524 13.4647 8.52729 13.458 8.52577C13.4532 8.52469 13.4533 8.52467 13.4422 8.52213C13.4342 8.5203 13.4219 8.51748 13.4078 8.51447C13.3566 8.50355 13.2348 8.47891 13.0839 8.48464L13.1598 10.4832C13.0615 10.4869 12.9913 10.4706 12.9905 10.4705C12.989 10.4701 12.9892 10.4702 12.9937 10.4712C12.995 10.4715 13.0074 10.4744 13.0149 10.4761C13.0328 10.4801 13.0707 10.4886 13.1159 10.4958C13.204 10.5098 13.3786 10.5294 13.5864 10.4773C13.813 10.4203 14.0014 10.2984 14.1434 10.1447L12.6745 8.78745Z" fill="white" mask="url(#path-46-inside-23_6_258)"/>
<mask id="path-48-inside-24_6_258" fill="white">
<path d="M8.31237 10.001C8.00481 10.0665 7.7138 10.1127 7.41875 10.016C7.83476 9.94472 8.25482 9.91749 8.66013 9.78601C8.59946 9.95737 8.44877 9.9492 8.31237 10.001Z"/>
</mask>
<path d="M8.31237 10.001C8.00481 10.0665 7.7138 10.1127 7.41875 10.016C7.83476 9.94472 8.25482 9.91749 8.66013 9.78601C8.59946 9.95737 8.44877 9.9492 8.31237 10.001Z" fill="white"/>
<path d="M8.31237 10.001L8.52059 10.9791L8.59571 10.9631L8.66752 10.9358L8.31237 10.001ZM7.41875 10.016L7.24995 9.03032L7.10731 10.9662L7.41875 10.016ZM8.66013 9.78601L9.60279 10.1198L10.2791 8.20954L8.35157 8.83481L8.66013 9.78601ZM8.10415 9.02294C7.95882 9.05388 7.87391 9.06731 7.80934 9.07064C7.7542 9.07348 7.73523 9.06736 7.73018 9.0657L7.10731 10.9662C7.68083 11.1542 8.2096 11.0453 8.52059 10.9791L8.10415 9.02294ZM7.58755 11.0016C7.86428 10.9542 8.47413 10.8976 8.96869 10.7372L8.35157 8.83481C8.03551 8.93733 7.80525 8.93522 7.24995 9.03032L7.58755 11.0016ZM7.71747 9.45226C7.74885 9.36361 7.80696 9.26046 7.90172 9.16818C7.99261 9.07967 8.08273 9.0349 8.13138 9.01471C8.1698 8.99876 8.19794 8.99271 8.15638 9.00387C8.13477 9.00968 8.04766 9.03185 7.95722 9.06621L8.66752 10.9358C8.64528 10.9443 8.62815 10.948 8.67505 10.9354C8.70201 10.9282 8.79719 10.9038 8.89792 10.862C9.00888 10.8159 9.15657 10.7378 9.29704 10.601C9.44138 10.4605 9.54107 10.2941 9.60279 10.1198L7.71747 9.45226Z" fill="white" mask="url(#path-48-inside-24_6_258)"/>
<mask id="path-50-inside-25_6_258" fill="white">
<path d="M5.0476 11.012C5.31903 10.7441 5.64711 10.6322 5.99863 10.5786C6.02803 10.6612 6.00858 10.6882 5.98388 10.6941C5.67948 10.7669 5.39925 10.8977 5.12441 11.0431C5.10742 11.0521 5.07553 11.0329 5.0476 11.012Z"/>
</mask>
<path d="M5.0476 11.012C5.31903 10.7441 5.64711 10.6322 5.99863 10.5786C6.02803 10.6612 6.00858 10.6882 5.98388 10.6941C5.67948 10.7669 5.39925 10.8977 5.12441 11.0431C5.10742 11.0521 5.07553 11.0329 5.0476 11.012Z" fill="white"/>
<path d="M5.0476 11.012L4.34508 10.3003L3.51778 11.117L4.44891 11.813L5.0476 11.012ZM5.99863 10.5786L6.94077 10.2434L6.66404 9.46567L5.84799 9.59003L5.99863 10.5786ZM5.98388 10.6941L5.75113 9.72156L5.75112 9.72156L5.98388 10.6941ZM5.12441 11.0431L5.59198 11.927L5.592 11.927L5.12441 11.0431ZM5.75012 11.7237C5.81541 11.6592 5.91207 11.6033 6.14927 11.5672L5.84799 9.59003C5.38215 9.66101 4.82265 9.82891 4.34508 10.3003L5.75012 11.7237ZM5.0565 10.9138C5.04925 10.8935 4.97545 10.6971 5.03917 10.4317C5.076 10.2783 5.1583 10.1079 5.30779 9.96418C5.45408 9.82359 5.6179 9.75344 5.75113 9.72156L6.21664 11.6666C6.36221 11.6318 6.53773 11.5561 6.69369 11.4062C6.85286 11.2532 6.94282 11.0697 6.98391 10.8986C7.05619 10.5975 6.97741 10.3464 6.94077 10.2434L5.0565 10.9138ZM5.75112 9.72156C5.32311 9.824 4.95446 10.0017 4.65682 10.1591L5.592 11.927C5.84404 11.7937 6.03585 11.7099 6.21665 11.6666L5.75112 9.72156ZM4.65683 10.1591C4.90323 10.0288 5.13341 10.0376 5.25581 10.0558C5.37889 10.074 5.46857 10.112 5.50992 10.1311C5.59209 10.1691 5.64346 10.2089 5.64629 10.211L4.44891 11.813C4.47968 11.836 4.56095 11.8958 4.6703 11.9464C4.72524 11.9718 4.82782 12.0142 4.96253 12.0341C5.09656 12.054 5.3371 12.0619 5.59198 11.927L4.65683 10.1591Z" fill="white" mask="url(#path-50-inside-25_6_258)"/>
<mask id="path-52-inside-26_6_258" fill="white">
<path d="M13.425 9.7826C13.4803 9.79816 13.5215 9.809 13.5193 9.89336C13.3456 9.92002 13.1916 9.89021 13.0233 9.75963C13.1836 9.6825 13.294 9.77369 13.425 9.7826Z"/>
</mask>
<path d="M13.425 9.7826C13.4803 9.79816 13.5215 9.809 13.5193 9.89336C13.3456 9.92002 13.1916 9.89021 13.0233 9.75963C13.1836 9.6825 13.294 9.77369 13.425 9.7826Z" fill="white"/>
<path d="M13.425 9.7826L13.6956 8.81992L13.596 8.79191L13.4928 8.7849L13.425 9.7826ZM13.5193 9.89336L13.671 10.8818L14.4968 10.755L14.5189 9.91981L13.5193 9.89336ZM13.0233 9.75963L12.5898 8.85848L11.1333 9.55913L12.4103 10.5498L13.0233 9.75963ZM13.1543 10.7453C13.1828 10.7533 13.1437 10.7433 13.1004 10.7264C13.0495 10.7066 12.9394 10.6584 12.8259 10.5565C12.5429 10.3026 12.5165 9.9868 12.5196 9.8669L14.5189 9.91981C14.5243 9.71556 14.4784 9.35221 14.1616 9.06789C14.0311 8.9508 13.9005 8.89169 13.8263 8.8628C13.7882 8.84793 13.7557 8.83762 13.7357 8.83156C13.7171 8.82589 13.6989 8.82085 13.6956 8.81992L13.1543 10.7453ZM13.3676 8.90493C13.383 8.90256 13.439 8.897 13.5132 8.91567C13.5875 8.93436 13.6301 8.96474 13.6362 8.9695L12.4103 10.5498C12.8038 10.855 13.2366 10.9485 13.671 10.8818L13.3676 8.90493ZM13.4568 10.6608C13.4214 10.6778 13.3804 10.6935 13.3343 10.7055C13.2881 10.7176 13.2418 10.7248 13.1969 10.7275C13.1073 10.7331 13.041 10.7201 13.0175 10.7149C13.0068 10.7125 13.002 10.711 13.0112 10.7135C13.0161 10.7149 13.0203 10.7162 13.0303 10.719C13.0387 10.7214 13.051 10.7249 13.0644 10.7286C13.1146 10.7424 13.223 10.7712 13.3572 10.7803L13.4928 8.7849C13.5614 8.78956 13.6069 8.80358 13.5945 8.80017C13.5792 8.79595 13.5895 8.79862 13.554 8.78862C13.5317 8.78235 13.4954 8.77233 13.4527 8.76281C13.3653 8.74331 13.2331 8.72148 13.0736 8.73133C12.9085 8.74153 12.7453 8.78365 12.5898 8.85848L13.4568 10.6608Z" fill="white" mask="url(#path-52-inside-26_6_258)"/>
<mask id="path-54-inside-27_6_258" fill="white">
<path d="M8.78786 10.1287C8.91988 10.12 9.03989 10.12 9.17589 10.12C9.1372 10.2758 9.02837 10.2575 8.94358 10.2517C8.87593 10.2471 8.76318 10.2738 8.78786 10.1287Z"/>
</mask>
<path d="M8.78786 10.1287C8.91988 10.12 9.03989 10.12 9.17589 10.12C9.1372 10.2758 9.02837 10.2575 8.94358 10.2517C8.87593 10.2471 8.76318 10.2738 8.78786 10.1287Z" fill="white"/>
<path d="M8.78786 10.1287L8.72198 9.13088L7.93435 9.18288L7.80201 9.96105L8.78786 10.1287ZM9.17589 10.12L10.1464 10.361L10.4546 9.12H9.17589V10.12ZM8.94358 10.2517L9.01138 9.254L9.01136 9.254L8.94358 10.2517ZM8.85373 11.1265C8.94783 11.1203 9.03573 11.12 9.17589 11.12V9.12C9.04406 9.12 8.89193 9.11966 8.72198 9.13088L8.85373 11.1265ZM8.20537 9.87896C8.22266 9.80936 8.26558 9.68698 8.37109 9.56201C8.48371 9.4286 8.62492 9.3429 8.76157 9.29748C8.88377 9.25686 8.98144 9.25533 9.01425 9.25546C9.03405 9.25554 9.07239 9.25815 9.01138 9.254L8.87578 11.2494C8.85716 11.2481 8.9409 11.2552 9.00616 11.2554C9.08444 11.2558 9.22763 11.2502 9.39247 11.1954C9.57177 11.1358 9.75274 11.0258 9.8993 10.8522C10.0387 10.687 10.1098 10.5085 10.1464 10.361L8.20537 9.87896ZM9.01136 9.254C8.96593 9.25091 8.92712 9.25104 8.91577 9.25105C8.89379 9.25106 8.90362 9.25107 8.90811 9.25116C8.90873 9.25118 9.02521 9.25013 9.16874 9.30161C9.34917 9.36633 9.57638 9.51654 9.70286 9.79518C9.81025 10.0318 9.78448 10.233 9.7737 10.2964L7.80201 9.96105C7.7789 10.0969 7.75797 10.3492 7.88168 10.6218C8.02446 10.9364 8.27946 11.1074 8.49346 11.1842C8.67054 11.2477 8.82635 11.2499 8.86637 11.2507C8.98803 11.2533 8.87695 11.2495 8.8758 11.2494L9.01136 9.254Z" fill="white" mask="url(#path-54-inside-27_6_258)"/>
<path d="M17.3768 10.1773L17.2791 10.0827C17.317 10.1005 17.3515 10.1299 17.3768 10.1773ZM17.3768 10.1773L17.2861 10.2257C17.3163 10.2224 17.3463 10.2088 17.3768 10.1773Z" fill="white" stroke="white"/>
<path d="M13.8452 10.6273C13.8453 10.6274 13.8454 10.6275 13.8454 10.6277L13.8461 10.6277L13.8452 10.6273ZM13.8452 10.6273L13.9567 10.566C13.9112 10.5635 13.8724 10.5743 13.8452 10.6273ZM13.8455 10.6277L13.8462 10.6277L13.9847 10.699C13.9334 10.695 13.8805 10.691 13.8455 10.6277Z" fill="white" stroke="white"/>
</svg>
