<svg width="30" height="46" viewBox="0 0 30 46" fill="none" xmlns="http://www.w3.org/2000/svg">
<path d="M16.7846 10.3759C17.9465 10.5525 18.0678 11.2993 17.9151 12.2506C17.7828 13.0744 17.3466 13.8868 17.7728 14.9083C21.6353 14.77 25.2793 13.9982 28.3027 11.4482C28.9332 10.9163 29.3338 9.99747 28.6218 9.30211C25.5078 6.26083 22.6047 2.96073 18.2345 1.4561C15.8441 0.633088 13.5808 1.03024 11.3427 1.80572C7.99096 2.96708 5.10533 4.82765 2.6598 7.38717C1.51246 8.58798 0.630504 9.93451 1.15517 11.4447C1.71763 13.0637 3.48416 13.4126 5.08929 13.6469C6.73991 13.8879 8.3995 14.0705 10.0552 14.2786" stroke="white" stroke-width="0.709571" stroke-linecap="round" stroke-linejoin="round"/>
<path d="M20.4699 38.6316C20.5893 36.301 21.6156 34.2767 22.9121 32.4128C23.4926 31.5782 24.2464 30.7975 25.5956 30.7651C26.6719 30.7392 27.4699 28.3804 26.6804 27.4217C25.6989 26.2298 25.2583 24.8823 24.7758 23.4957C24.3832 22.3675 23.3955 21.8175 22.231 21.6237C21.0908 21.4339 20.032 22.2431 18.865 21.9377C18.7787 21.9151 18.5845 22.0091 18.5574 22.0873C17.9576 23.8218 16.3712 24.7374 15.2194 26.0182C14.5632 26.7478 15.279 28.1498 16.3067 28.4765C16.9332 28.6757 17.6094 28.9894 18.2226 28.9185C20.5344 28.6512 22.3914 29.5638 24.1551 30.8261" stroke="white" stroke-width="0.709571" stroke-linecap="round" stroke-linejoin="round"/>
<path d="M27.68 11.6248C26.9727 10.4013 25.8584 10.0753 24.4763 10.0361C22.676 9.9851 20.9789 9.3701 19.3537 8.64712C17.3114 7.73862 15.1932 7.70096 13.1078 8.22205C10.8313 8.79091 8.49032 8.70936 6.21087 9.13261C4.39205 9.47033 2.27706 9.31761 1.56323 11.6248" stroke="white" stroke-width="0.709571" stroke-linecap="round" stroke-linejoin="round"/>
<path d="M10.696 10.6881C10.0482 10.9018 10.321 11.2954 10.3331 11.7819C10.3952 14.2754 10.6574 16.8217 9.12329 19.2244C10.0624 19.5227 10.0643 20.2196 10.0704 20.9912C10.0971 24.327 9.44151 27.6474 9.76028 30.98C9.92817 32.7351 9.93365 34.4411 9.41422 36.1339" stroke="white" stroke-width="0.709571" stroke-linecap="round" stroke-linejoin="round"/>
<path d="M4.12677 39.2561C3.6507 40.4567 1.95545 40.6674 1.70142 42.0112C1.9384 42.5833 2.3952 42.5187 2.8442 42.5462C3.20716 42.5685 3.49141 42.4974 3.85936 42.9629C4.95503 44.3491 6.69419 44.4093 8.28507 44.1976C9.3138 44.0608 10.1493 43.8112 11.2129 44.3384C11.9946 44.7259 13.064 44.83 14.0774 44.2807C15.7032 43.3993 17.171 44.6288 18.6984 44.9202C19.6125 45.0946 20.0646 45.0501 20.1493 44.0955" stroke="white" stroke-width="0.709571" stroke-linecap="round" stroke-linejoin="round"/>
<path d="M16.1438 28.7968C16.673 31.4228 15.8457 33.8482 15.0462 36.2974C14.7384 37.2404 14.7017 38.2674 14.5415 39.2561" stroke="white" stroke-width="0.709571" stroke-linecap="round" stroke-linejoin="round"/>
<path d="M21.271 41.2855C20.6402 40.8611 19.7612 41.4848 19.0808 40.7038C19.4722 40.0932 19.8906 39.4404 20.3097 38.7863C21.0819 39.0845 21.9846 38.772 22.7112 39.2586C23.813 39.9965 23.8378 40.6725 22.8732 42.8466" stroke="white" stroke-width="1.06436" stroke-linecap="round" stroke-linejoin="round"/>
<path d="M9.89498 36.4462C8.00836 36.3845 6.43829 37.1919 4.92798 38.1634" stroke="white" stroke-width="0.709571" stroke-linecap="round" stroke-linejoin="round"/>
<path d="M17.7461 17.0886C18.5029 18.2511 19.5234 19.2676 19.8305 20.6788C19.8956 20.9777 19.7009 21.1371 19.5086 21.3036" stroke="white" stroke-width="0.709571" stroke-linecap="round" stroke-linejoin="round"/>
<path d="M17.5858 15.0592C17.2442 15.6602 17.5321 16.3124 17.4003 16.9336C16.4553 16.9068 15.4485 17.2014 14.5415 16.6203" stroke="white" stroke-width="0.709571" stroke-linecap="round" stroke-linejoin="round"/>
<path d="M19.0277 40.8171C17.8676 41.1896 16.7251 41.9374 15.5027 40.9732" stroke="white" stroke-width="1.06436" stroke-linecap="round" stroke-linejoin="round"/>
<path d="M10.696 19.4303C11.0858 20.5563 12.0644 20.3435 12.9392 20.367" stroke="white" stroke-width="0.709571" stroke-linecap="round" stroke-linejoin="round"/>
<path d="M18.2267 21.9281C17.7848 20.9208 16.8864 21.3588 16.1438 21.3036" stroke="white" stroke-width="0.709571" stroke-linecap="round" stroke-linejoin="round"/>
<path d="M9.73479 38.7877C8.61817 38.8156 7.69458 37.9031 6.53027 38.1633" stroke="white" stroke-width="0.709571" stroke-linecap="round" stroke-linejoin="round"/>
<path d="M17.5857 33.9484C18.2684 33.5421 18.9002 32.8774 19.4203 34.2344C19.5565 34.5895 20.5284 34.7032 20.9504 35.1973" stroke="white" stroke-width="0.709571" stroke-linecap="round" stroke-linejoin="round"/>
<path d="M17.9061 33.6362C17.5184 33.0343 17.0864 32.4713 16.4641 32.0751" stroke="white" stroke-width="0.709571" stroke-linecap="round" stroke-linejoin="round"/>
<path d="M10.5359 37.0707C11.0458 37.6896 11.829 38.0769 12.1381 38.8659" stroke="white" stroke-width="1.06436" stroke-linecap="round" stroke-linejoin="round"/>
<path d="M22.0721 43.3149C21.0254 43.8547 19.9921 44.1451 19.0278 43.1588" stroke="white" stroke-width="0.709571" stroke-linecap="round" stroke-linejoin="round"/>
<path d="M10.696 40.0366C12.4144 38.349 14.0495 38.5687 15.3426 40.661" stroke="white" stroke-width="1.06436" stroke-linecap="round" stroke-linejoin="round"/>
<path d="M8.61314 38.9438C8.15089 39.8825 7.97002 40.8933 7.81201 41.9099" stroke="white" stroke-width="0.709571" stroke-linecap="round" stroke-linejoin="round"/>
<path d="M15.8231 41.5977C15.6716 42.147 15.6112 42.6372 16.464 42.5343" stroke="white" stroke-width="0.709571" stroke-linecap="round" stroke-linejoin="round"/>
<path d="M11.0165 18.4937C11.016 19.1251 10.3914 19.2354 10.0552 19.5864" stroke="white" stroke-width="0.709571" stroke-linecap="round" stroke-linejoin="round"/>
</svg>
