<?xml version="1.0" standalone="no"?>
<!DOCTYPE svg PUBLIC "-//W3C//DTD SVG 20010904//EN"
 "http://www.w3.org/TR/2001/REC-SVG-20010904/DTD/svg10.dtd">
<svg version="1.0" xmlns="http://www.w3.org/2000/svg"
 width="150.000000pt" height="150.000000pt" viewBox="0 0 64.000000 64.000000"
 preserveAspectRatio="xMidYMid meet">

<g transform="translate(0.000000,64.000000) scale(0.100000,-0.100000)"
fill="#000000" stroke="none">
<path d="M238 583 c-11 -3 -18 -14 -18 -29 0 -38 -36 -67 -75 -61 -37 6 -51
-5 -79 -60 -20 -40 -20 -67 0 -87 23 -24 485 -24 508 0 21 20 20 47 -3 92 -28
55 -55 76 -80 63 -11 -6 -28 -11 -39 -11 -27 0 -62 42 -62 73 0 27 -1 27 -67
26 -38 -1 -76 -3 -85 -6z m116 -136 c8 -23 6 -31 -12 -49 -30 -30 -75 -16 -80
25 -5 38 15 59 52 55 23 -2 33 -10 40 -31z m161 -13 c21 -21 16 -63 -10 -80
-46 -31 -97 35 -59 77 21 23 47 24 69 3z m-320 -24 c3 -5 1 -19 -5 -30 -16
-31 -64 -24 -68 9 -7 45 49 61 73 21z"/>
<path d="M292 433 c2 -10 10 -18 18 -18 8 0 16 8 18 18 2 12 -3 17 -18 17 -15
0 -20 -5 -18 -17z"/>
<path d="M467 414 c-14 -15 -6 -34 14 -34 14 0 19 5 17 17 -3 18 -20 27 -31
17z"/>
<path d="M420 556 c0 -24 28 -40 53 -29 21 10 21 10 -10 26 -39 21 -43 21 -43
3z"/>
<path d="M159 541 c-19 -16 -20 -20 -8 -21 17 0 45 27 37 35 -3 3 -16 -3 -29
-14z"/>
<path d="M267 293 c-3 -5 -8 -51 -12 -104 -7 -90 -6 -98 14 -118 27 -27 75
-27 102 0 20 20 21 28 14 118 -4 53 -9 99 -12 104 -2 4 -26 7 -53 7 -27 0 -51
-3 -53 -7z"/>
</g>
</svg>
