<?xml version="1.0" standalone="no"?>
<!DOCTYPE svg PUBLIC "-//W3C//DTD SVG 20010904//EN"
 "http://www.w3.org/TR/2001/REC-SVG-20010904/DTD/svg10.dtd">
<svg version="1.0" xmlns="http://www.w3.org/2000/svg"
 width="150.000000pt" height="150.000000pt" viewBox="0 0 64.000000 64.000000"
 preserveAspectRatio="xMidYMid meet">

<g transform="translate(0.000000,64.000000) scale(0.100000,-0.100000)"
fill="#000000" stroke="none">
<path d="M300 587 c0 -34 48 -49 70 -22 10 12 8 16 -15 25 -36 14 -55 13 -55
-3z"/>
<path d="M255 578 c-34 -19 -75 -61 -75 -78 0 -25 -20 -39 -49 -34 -19 4 -36
-3 -64 -26 -31 -26 -37 -38 -37 -69 0 -27 7 -44 25 -61 29 -27 31 -23 10 26
-16 39 -12 60 17 75 14 8 25 7 41 -4 12 -7 49 -23 82 -35 33 -11 100 -37 150
-58 59 -24 90 -33 93 -25 6 18 32 41 48 41 8 0 23 -9 34 -20 25 -25 31 -25 59
1 l23 22 -25 21 c-14 11 -27 32 -29 46 -3 22 -8 25 -46 25 -48 0 -65 16 -58
56 4 19 -3 35 -24 58 l-30 32 -29 -22 c-29 -21 -31 -21 -55 -5 -15 9 -26 23
-26 31 0 18 -8 18 -35 3z m45 -57 c13 -25 4 -48 -21 -56 -38 -12 -65 35 -37
63 18 18 46 14 58 -7z m114 -29 c9 -14 -12 -35 -28 -29 -23 9 -20 37 3 37 11
0 22 -4 25 -8z m-219 -62 c0 -22 -29 -18 -33 3 -3 14 1 18 15 15 10 -2 18 -10
18 -18z m85 -15 c10 -12 10 -18 0 -30 -25 -30 -61 -7 -46 30 3 8 12 15 19 15
8 0 20 -7 27 -15z m125 -15 c13 -41 -43 -70 -64 -33 -13 25 5 53 34 53 15 0
26 -7 30 -20z m88 -14 c8 -20 -20 -43 -35 -28 -14 14 -3 42 16 42 7 0 16 -6
19 -14z"/>
<path d="M251 521 c-19 -12 -6 -41 19 -41 16 0 21 5 18 22 -3 25 -17 32 -37
19z"/>
<path d="M385 480 c3 -5 8 -10 11 -10 2 0 4 5 4 10 0 6 -5 10 -11 10 -5 0 -7
-4 -4 -10z"/>
<path d="M245 410 c-7 -12 2 -30 16 -30 12 0 12 27 0 35 -5 3 -12 1 -16 -5z"/>
<path d="M350 391 c0 -26 17 -36 35 -21 18 15 8 40 -16 40 -12 0 -19 -7 -19
-19z"/>
<path d="M465 380 c-3 -5 -1 -10 4 -10 6 0 11 5 11 10 0 6 -2 10 -4 10 -3 0
-8 -4 -11 -10z"/>
<path d="M150 495 c-10 -12 -10 -15 4 -15 9 0 16 7 16 15 0 8 -2 15 -4 15 -2
0 -9 -7 -16 -15z"/>
<path d="M464 476 c-7 -18 12 -46 32 -46 24 0 24 17 -1 40 -22 20 -25 21 -31
6z"/>
<path d="M572 388 c2 -12 11 -24 21 -26 24 -5 22 25 -4 38 -18 10 -20 9 -17
-12z"/>
<path d="M74 385 c-11 -27 1 -30 23 -7 22 21 22 22 2 22 -11 0 -22 -7 -25 -15z"/>
<path d="M128 373 c7 -3 16 -2 19 1 4 3 -2 6 -13 5 -11 0 -14 -3 -6 -6z"/>
<path d="M90 350 c0 -5 19 -10 43 -10 31 0 38 3 27 10 -20 13 -70 13 -70 0z"/>
<path d="M243 302 c9 -40 7 -54 -12 -96 -37 -84 -26 -136 33 -156 66 -21 156
12 156 59 0 11 -11 43 -25 73 -14 29 -25 66 -25 81 0 25 -7 32 -65 58 -35 16
-66 29 -68 29 -2 0 1 -21 6 -48z m5 -212 c7 -11 11 -20 9 -20 -2 0 -12 9 -22
20 -10 11 -14 20 -9 20 5 0 15 -9 22 -20z"/>
<path d="M135 331 c-38 -4 -55 -9 -47 -15 15 -9 90 0 112 14 8 5 11 9 5 8 -5
-1 -37 -4 -70 -7z"/>
<path d="M150 305 c-49 -11 -52 -13 -29 -19 18 -5 38 -2 59 9 17 9 34 14 37
11 3 -3 -6 -11 -21 -17 -28 -13 -35 -29 -13 -29 19 0 50 37 42 49 -3 6 -9 10
-13 10 -4 -1 -32 -7 -62 -14z"/>
<path d="M476 304 c-22 -22 -21 -24 19 -24 39 0 46 14 16 30 -15 7 -23 6 -35
-6z"/>
<path d="M380 280 c0 -6 7 -10 15 -10 8 0 15 2 15 4 0 2 -7 6 -15 10 -8 3 -15
1 -15 -4z"/>
</g>
</svg>
