<svg version="1.0" xmlns="http://www.w3.org/2000/svg"
 width="150.000000pt" height="150.000000pt" viewBox="0 0 64.000000 64.000000"
 preserveAspectRatio="xMidYMid meet">

<g transform="translate(0.000000,64.000000) scale(0.100000,-0.100000)"
fill="#000000" stroke="none">
<path d="M271 599 c-14 -5 -45 -26 -69 -46 -73 -60 -146 -113 -155 -113 -4 0
-15 -16 -23 -35 -12 -30 -12 -40 -1 -68 20 -46 38 -58 123 -78 42 -10 79 -20
82 -23 3 -3 -3 -24 -13 -45 -46 -104 8 -173 123 -157 55 7 92 39 92 77 0 15
-11 51 -25 80 -29 64 -24 74 48 75 29 1 64 2 79 3 32 1 83 45 93 79 5 19 -1
30 -30 55 -21 18 -74 67 -119 109 -101 96 -141 113 -205 87z m27 -49 c15 -25
58 -26 84 -3 17 15 20 15 44 -8 20 -18 24 -30 20 -52 -7 -35 34 -83 62 -72 32
12 37 10 40 -17 2 -15 15 -37 30 -49 l27 -21 -24 -19 c-24 -19 -24 -19 -38 1
-19 28 -67 27 -87 -2 -15 -21 -18 -21 -52 -9 -20 7 -61 24 -91 38 -47 22 -52
27 -37 37 23 17 14 50 -15 54 -27 4 -43 -15 -35 -40 5 -15 1 -16 -28 -7 -18 6
-45 17 -60 25 -14 8 -34 14 -45 14 -16 1 -15 3 6 20 13 11 32 20 43 20 10 0
43 25 73 55 29 30 57 55 62 55 4 0 14 -9 21 -20z m10 -231 c46 -19 52 -26 58
-58 4 -19 18 -58 30 -86 29 -61 30 -77 5 -99 -45 -41 -145 -37 -176 7 -21 29
-19 60 6 109 16 32 20 54 17 95 -3 29 -2 53 2 53 4 0 30 -10 58 -21z m-129 7
c-11 -10 -89 -15 -89 -6 0 5 21 10 47 10 25 0 44 -2 42 -4z m-24 -36 c-27 -12
-35 -12 -35 0 0 6 12 10 28 9 24 0 25 -1 7 -9z m56 -11 c-13 -11 -26 -17 -29
-14 -7 6 29 34 43 34 6 0 -1 -9 -14 -20z"/>
<path d="M238 530 c-20 -15 -21 -21 -10 -44 22 -49 91 -25 78 28 -8 31 -40 39
-68 16z"/>
<path d="M377 504 c-10 -10 -9 -42 2 -48 18 -11 42 6 39 28 -3 21 -28 33 -41
20z"/>
<path d="M161 446 c-16 -19 -6 -36 20 -36 15 0 20 6 17 22 -4 27 -21 33 -37
14z"/>
<path d="M340 415 c-15 -18 -6 -61 16 -69 24 -9 54 12 54 37 0 43 -44 63 -70
32z"/>
<path d="M447 387 c-8 -21 8 -39 29 -35 27 5 25 42 -2 46 -12 2 -24 -3 -27
-11z"/>
<path d="M220 112 c0 -5 6 -17 14 -28 19 -25 31 -12 14 15 -13 21 -28 28 -28
13z"/>
</g>
</svg>
